<svg xmlns="http://www.w3.org/2000/svg" version="1.1" xmlns:xlink="http://www.w3.org/1999/xlink" xmlns:svgjs="http://svgjs.dev/svgjs" width="2440" height="1560" preserveAspectRatio="none" viewBox="0 0 2440 1560"><g mask="url(&quot;#SvgjsMask1350&quot;)" fill="none"><rect width="2440" height="1560" x="0" y="0" fill="rgba(0, 17, 34, 1)"></rect><g mask="url(&quot;#SvgjsMask1351&quot;)"><path d="M252 756L276 756M540 756L564 732L588 708L612 708L636 708L660 708L684 708L708 708L732 732L756 732L780 708L804 708L828 708M1140 732L1164 756L1188 780L1212 780M1212 684L1236 708L1260 708L1284 708L1308 708M132 756L156 780M228 756L252 780L276 780M36 780L60 780L84 780L108 780L132 780M516 756L540 732L564 708M972 756L996 732L1020 708L1044 708L1068 708L1092 708L1116 708L1140 708M180 756L204 780L228 780M420 708L444 732L468 756L492 780L516 780M1116 732L1140 756L1164 780L1188 804L1212 804L1236 804L1260 804M1356 684L1380 708L1404 708L1428 708L1452 708L1476 708L1500 708L1524 708M300 732L324 756L348 756L372 756L396 732L420 732L444 756L468 780M-12 780L12 780L36 780L60 756L84 756L108 756L132 756L156 756L180 756L204 756L228 756L252 756L276 732L300 732L324 732L348 732L372 732L396 708L420 708L444 708L468 732L492 756L516 756L540 756L564 756L588 732L612 732L636 732L660 732L684 756L708 756L732 756L756 756L780 732L804 732L828 732L852 732L876 732L900 732L924 732L948 756L972 756L996 756L1020 732L1044 732L1068 732L1092 732L1116 732L1140 732L1164 708L1188 708L1212 684L1236 684L1260 684L1284 684L1308 684L1332 684L1356 684L1380 684" stroke="rgba(247, 119, 14, 0.52)" stroke-width="4"></path><path d="M1374 684 a6 6 0 1 0 12 0 a6 6 0 1 0 -12 0zM270 756 a6 6 0 1 0 12 0 a6 6 0 1 0 -12 0zM822 708 a6 6 0 1 0 12 0 a6 6 0 1 0 -12 0zM1206 780 a6 6 0 1 0 12 0 a6 6 0 1 0 -12 0zM1302 708 a6 6 0 1 0 12 0 a6 6 0 1 0 -12 0zM150 780 a6 6 0 1 0 12 0 a6 6 0 1 0 -12 0zM270 780 a6 6 0 1 0 12 0 a6 6 0 1 0 -12 0zM126 780 a6 6 0 1 0 12 0 a6 6 0 1 0 -12 0zM558 708 a6 6 0 1 0 12 0 a6 6 0 1 0 -12 0zM1134 708 a6 6 0 1 0 12 0 a6 6 0 1 0 -12 0zM222 780 a6 6 0 1 0 12 0 a6 6 0 1 0 -12 0zM510 780 a6 6 0 1 0 12 0 a6 6 0 1 0 -12 0zM1254 804 a6 6 0 1 0 12 0 a6 6 0 1 0 -12 0zM1518 708 a6 6 0 1 0 12 0 a6 6 0 1 0 -12 0zM462 780 a6 6 0 1 0 12 0 a6 6 0 1 0 -12 0z" fill="rgba(247, 119, 14, 0.52)"></path><path d="M588 780L612 804L636 804L660 804L684 804L708 804L732 804M396 804L420 780L444 780M492 804L516 828L540 828L564 828L588 828L612 828L636 828L660 852L684 852L708 852L732 852L756 852L780 852L804 852L828 852L852 852L876 852L900 852M228 804L252 828M564 804L588 804M84 804L108 828L132 828L156 828L180 828L204 828L228 828M780 756L804 780L828 780L852 780L876 780L900 780L924 780L948 804L972 804L996 804L1020 804L1044 804L1068 804M540 804L564 780M1044 780L1068 756M60 804L84 828M36 804L60 828M-12 804L12 804L36 804L60 804L84 804L108 804L132 804L156 804L180 804L204 804L228 804L252 804L276 804L300 804L324 804L348 804L372 804L396 804L420 804L444 804L468 804L492 804L516 804L540 804L564 804L588 780L612 780L636 780L660 780L684 780L708 780L732 780L756 780L780 756L804 756L828 756L852 756L876 756L900 756L924 756L948 780L972 780L996 780L1020 780L1044 780L1068 780" stroke="rgba(247, 119, 14, 1)" stroke-width="4"></path><path d="M1062 780 a6 6 0 1 0 12 0 a6 6 0 1 0 -12 0zM726 804 a6 6 0 1 0 12 0 a6 6 0 1 0 -12 0zM438 780 a6 6 0 1 0 12 0 a6 6 0 1 0 -12 0zM894 852 a6 6 0 1 0 12 0 a6 6 0 1 0 -12 0zM246 828 a6 6 0 1 0 12 0 a6 6 0 1 0 -12 0zM582 804 a6 6 0 1 0 12 0 a6 6 0 1 0 -12 0zM222 828 a6 6 0 1 0 12 0 a6 6 0 1 0 -12 0zM1062 804 a6 6 0 1 0 12 0 a6 6 0 1 0 -12 0zM558 780 a6 6 0 1 0 12 0 a6 6 0 1 0 -12 0zM1062 756 a6 6 0 1 0 12 0 a6 6 0 1 0 -12 0zM78 828 a6 6 0 1 0 12 0 a6 6 0 1 0 -12 0zM54 828 a6 6 0 1 0 12 0 a6 6 0 1 0 -12 0z" fill="rgba(247, 119, 14, 1)"></path><path d="M684 684L708 660L732 660L756 660L780 660M1356 660L1380 636M1332 660L1356 636L1380 612L1404 612L1428 612L1452 612L1476 612L1500 612L1524 612L1548 612L1572 612L1596 612L1620 612L1644 612L1668 612L1692 612L1716 612L1740 612M564 684L588 660L612 660M1092 684L1116 660L1140 660L1164 660L1188 660L1212 636L1236 636L1260 636L1284 636L1308 636L1332 636L1356 612L1380 588L1404 588L1428 588M492 684L516 708L540 708M1428 636L1452 660L1476 660L1500 660L1524 660L1548 660L1572 660L1596 660L1620 660L1644 660L1668 660L1692 636L1716 636L1740 636L1764 636L1788 636L1812 636L1836 636L1860 636L1884 636L1908 636L1932 636L1956 636L1980 636L2004 636L2028 636L2052 636L2076 636L2100 636L2124 636M540 684L564 660M516 684L540 660M468 684L492 708L516 732M732 684L756 708M876 684L900 660L924 660L948 660M852 684L876 708L900 708M636 684L660 660L684 660M1020 684L1044 660L1068 660L1092 660L1116 636L1140 636L1164 636L1188 636M1380 660L1404 660L1428 660L1452 684L1476 684M996 684L1020 660L1044 636L1068 636L1092 636M-12 756L12 756L36 756L60 732L84 732L108 732L132 732L156 732L180 732L204 732L228 732L252 708L276 708L300 708L324 708L348 708L372 708L396 684L420 684L444 684L468 684L492 684L516 684L540 684L564 684L588 684L612 684L636 684L660 684L684 684L708 684L732 684L756 684L780 684L804 684L828 684L852 684L876 684L900 684L924 684L948 684L972 684L996 684L1020 684L1044 684L1068 684L1092 684L1116 684L1140 684L1164 684L1188 684L1212 660L1236 660L1260 660L1284 660L1308 660L1332 660L1356 660L1380 660L1404 636L1428 636L1452 636L1476 636L1500 636L1524 636L1548 636L1572 636L1596 636L1620 636L1644 636" stroke="rgba(247, 119, 14, 0.24)" stroke-width="4"></path><path d="M1638 636 a6 6 0 1 0 12 0 a6 6 0 1 0 -12 0zM774 660 a6 6 0 1 0 12 0 a6 6 0 1 0 -12 0zM1374 636 a6 6 0 1 0 12 0 a6 6 0 1 0 -12 0zM1734 612 a6 6 0 1 0 12 0 a6 6 0 1 0 -12 0zM606 660 a6 6 0 1 0 12 0 a6 6 0 1 0 -12 0zM1422 588 a6 6 0 1 0 12 0 a6 6 0 1 0 -12 0zM534 708 a6 6 0 1 0 12 0 a6 6 0 1 0 -12 0zM2118 636 a6 6 0 1 0 12 0 a6 6 0 1 0 -12 0zM558 660 a6 6 0 1 0 12 0 a6 6 0 1 0 -12 0zM534 660 a6 6 0 1 0 12 0 a6 6 0 1 0 -12 0zM510 732 a6 6 0 1 0 12 0 a6 6 0 1 0 -12 0zM750 708 a6 6 0 1 0 12 0 a6 6 0 1 0 -12 0zM942 660 a6 6 0 1 0 12 0 a6 6 0 1 0 -12 0zM894 708 a6 6 0 1 0 12 0 a6 6 0 1 0 -12 0zM678 660 a6 6 0 1 0 12 0 a6 6 0 1 0 -12 0zM1182 636 a6 6 0 1 0 12 0 a6 6 0 1 0 -12 0zM1470 684 a6 6 0 1 0 12 0 a6 6 0 1 0 -12 0zM1086 636 a6 6 0 1 0 12 0 a6 6 0 1 0 -12 0z" fill="rgba(247, 119, 14, 0.24)"></path><path d="M-12 828L12 828" stroke="rgba(247, 119, 14, 1)" stroke-width="4"></path><path d="M6 828 a6 6 0 1 0 12 0 a6 6 0 1 0 -12 0z" fill="rgba(247, 119, 14, 1)"></path><path d="M12 732L36 732M492 660L516 660M-12 732L12 732L36 708L60 708L84 708L108 708L132 708L156 708L180 708L204 708L228 708L252 684L276 684L300 684L324 684L348 684L372 684L396 660L420 660L444 660L468 660L492 660L516 636L540 636L564 636L588 636L612 636L636 636L660 636L684 636L708 636L732 636L756 636" stroke="rgba(247, 119, 14, 0.24)" stroke-width="4"></path><path d="M750 636 a6 6 0 1 0 12 0 a6 6 0 1 0 -12 0zM30 732 a6 6 0 1 0 12 0 a6 6 0 1 0 -12 0zM510 660 a6 6 0 1 0 12 0 a6 6 0 1 0 -12 0z" fill="rgba(247, 119, 14, 0.24)"></path><path d="M60 876L84 876L108 876M132 852L156 876L180 876L204 876M36 876L60 852M-12 852L12 876L36 876L60 876L84 852L108 852L132 852L156 852L180 852L204 852L228 852L252 852L276 828" stroke="rgba(247, 119, 14, 1)" stroke-width="4"></path><path d="M270 828 a6 6 0 1 0 12 0 a6 6 0 1 0 -12 0zM102 876 a6 6 0 1 0 12 0 a6 6 0 1 0 -12 0zM198 876 a6 6 0 1 0 12 0 a6 6 0 1 0 -12 0zM54 852 a6 6 0 1 0 12 0 a6 6 0 1 0 -12 0z" fill="rgba(247, 119, 14, 1)"></path><path d="M1428 564L1452 564L1476 564L1500 564L1524 564L1548 564L1572 540L1596 540L1620 540L1644 540L1668 540L1692 564L1716 564L1740 564L1764 564L1788 564L1812 540L1836 540M2100 468L2124 468L2148 492L2172 492L2196 492L2220 492L2244 492L2268 492L2292 492L2316 492L2340 468L2364 468L2388 468M2196 444L2220 420L2244 396L2268 396L2292 396L2316 396L2340 396L2364 396L2388 396M1212 612L1236 612L1260 612L1284 612L1308 612L1332 612L1356 588M2004 516L2028 516L2052 516L2076 516L2100 516L2124 516L2148 516L2172 516L2196 516L2220 516L2244 516L2268 516L2292 516L2316 516L2340 516L2364 516L2388 516M2244 420L2268 444L2292 444L2316 444L2340 444L2364 444L2388 444M684 612L708 588L732 588L756 588L780 588L804 588L828 588M2172 444L2196 420L2220 396L2244 372M876 612L900 636L924 636L948 636L972 660L996 660L1020 636M204 660L228 684M1260 564L1284 588L1308 588L1332 588M2220 444L2244 444L2268 468L2292 468L2316 468M1860 564L1884 588L1908 588M1404 564L1428 540L1452 540L1476 540L1500 540M1788 588L1812 588L1836 588L1860 588L1884 612L1908 612M804 612L828 636L852 636L876 636M1236 588L1260 588M1884 564L1908 540M660 612L684 588M2076 492L2100 492L2124 492M1644 588L1668 564M1572 588L1596 564L1620 564L1644 564M2052 492L2076 468L2100 444M2124 444L2148 420L2172 420L2196 396L2220 372L2244 348M1380 564L1404 540L1428 516L1452 516M-12 708L12 708L36 684L60 684L84 684L108 684L132 684L156 684L180 684L204 660L228 660L252 660L276 660L300 660L324 660L348 660L372 636L396 636L420 636L444 636L468 636L492 636L516 612L540 612L564 612L588 612L612 612L636 612L660 612L684 612L708 612L732 612L756 612L780 612L804 612L828 612L852 612L876 612L900 612L924 612L948 612L972 612L996 612L1020 612L1044 612L1068 612L1092 612L1116 612L1140 612L1164 612L1188 612L1212 612L1236 588L1260 564L1284 564L1308 564L1332 564L1356 564L1380 564L1404 564L1428 564L1452 588L1476 588L1500 588L1524 588L1548 588L1572 588L1596 588L1620 588L1644 588L1668 588L1692 588L1716 588L1740 588L1764 588L1788 588L1812 564L1836 564L1860 564L1884 564L1908 564L1932 540L1956 516L1980 516L2004 516L2028 492L2052 492L2076 492L2100 468L2124 444L2148 444L2172 444L2196 444L2220 444L2244 420L2268 420L2292 420L2316 420L2340 420L2364 420L2388 420" stroke="rgba(247, 119, 14, 0.24)" stroke-width="4"></path><path d="M2382 420 a6 6 0 1 0 12 0 a6 6 0 1 0 -12 0zM1830 540 a6 6 0 1 0 12 0 a6 6 0 1 0 -12 0zM2382 468 a6 6 0 1 0 12 0 a6 6 0 1 0 -12 0zM2382 396 a6 6 0 1 0 12 0 a6 6 0 1 0 -12 0zM1350 588 a6 6 0 1 0 12 0 a6 6 0 1 0 -12 0zM2382 516 a6 6 0 1 0 12 0 a6 6 0 1 0 -12 0zM2382 444 a6 6 0 1 0 12 0 a6 6 0 1 0 -12 0zM822 588 a6 6 0 1 0 12 0 a6 6 0 1 0 -12 0zM2238 372 a6 6 0 1 0 12 0 a6 6 0 1 0 -12 0zM1014 636 a6 6 0 1 0 12 0 a6 6 0 1 0 -12 0zM222 684 a6 6 0 1 0 12 0 a6 6 0 1 0 -12 0zM1326 588 a6 6 0 1 0 12 0 a6 6 0 1 0 -12 0zM2310 468 a6 6 0 1 0 12 0 a6 6 0 1 0 -12 0zM1902 588 a6 6 0 1 0 12 0 a6 6 0 1 0 -12 0zM1494 540 a6 6 0 1 0 12 0 a6 6 0 1 0 -12 0zM1902 612 a6 6 0 1 0 12 0 a6 6 0 1 0 -12 0zM870 636 a6 6 0 1 0 12 0 a6 6 0 1 0 -12 0zM1254 588 a6 6 0 1 0 12 0 a6 6 0 1 0 -12 0zM1902 540 a6 6 0 1 0 12 0 a6 6 0 1 0 -12 0zM678 588 a6 6 0 1 0 12 0 a6 6 0 1 0 -12 0zM2118 492 a6 6 0 1 0 12 0 a6 6 0 1 0 -12 0zM1662 564 a6 6 0 1 0 12 0 a6 6 0 1 0 -12 0zM1638 564 a6 6 0 1 0 12 0 a6 6 0 1 0 -12 0zM2094 444 a6 6 0 1 0 12 0 a6 6 0 1 0 -12 0zM2238 348 a6 6 0 1 0 12 0 a6 6 0 1 0 -12 0zM1446 516 a6 6 0 1 0 12 0 a6 6 0 1 0 -12 0z" fill="rgba(247, 119, 14, 0.24)"></path><path d="M372 900L396 924M132 900L156 924L180 924L204 924M444 900L468 900L492 900L516 900L540 900L564 900L588 900M228 900L252 876L276 876L300 876L324 876L348 852L372 852L396 852M348 900L372 876L396 876L420 876L444 876L468 876M-12 876L12 900L36 900L60 900L84 900L108 900L132 900L156 900L180 900L204 900L228 900L252 900L276 900L300 900L324 900L348 900L372 900L396 900L420 900L444 900L468 924L492 924L516 924L540 924" stroke="rgba(247, 119, 14, 0.52)" stroke-width="4"></path><path d="M534 924 a6 6 0 1 0 12 0 a6 6 0 1 0 -12 0zM390 924 a6 6 0 1 0 12 0 a6 6 0 1 0 -12 0zM198 924 a6 6 0 1 0 12 0 a6 6 0 1 0 -12 0zM582 900 a6 6 0 1 0 12 0 a6 6 0 1 0 -12 0zM390 852 a6 6 0 1 0 12 0 a6 6 0 1 0 -12 0zM462 876 a6 6 0 1 0 12 0 a6 6 0 1 0 -12 0z" fill="rgba(247, 119, 14, 0.52)"></path><path d="M156 660L180 636M612 588L636 564M252 636L276 612L300 612L324 612M228 636L252 612L276 588L300 588M204 636L228 612L252 588M132 660L156 636M636 588L660 588M-12 684L12 684L36 660L60 660L84 660L108 660L132 660L156 660L180 660L204 636L228 636L252 636L276 636L300 636L324 636L348 636L372 612L396 612L420 612L444 612L468 612L492 612L516 588L540 588L564 588L588 588L612 588L636 588L660 564L684 564L708 564L732 564" stroke="rgba(247, 119, 14, 1)" stroke-width="4"></path><path d="M726 564 a6 6 0 1 0 12 0 a6 6 0 1 0 -12 0zM174 636 a6 6 0 1 0 12 0 a6 6 0 1 0 -12 0zM630 564 a6 6 0 1 0 12 0 a6 6 0 1 0 -12 0zM318 612 a6 6 0 1 0 12 0 a6 6 0 1 0 -12 0zM294 588 a6 6 0 1 0 12 0 a6 6 0 1 0 -12 0zM246 588 a6 6 0 1 0 12 0 a6 6 0 1 0 -12 0zM150 636 a6 6 0 1 0 12 0 a6 6 0 1 0 -12 0zM654 588 a6 6 0 1 0 12 0 a6 6 0 1 0 -12 0z" fill="rgba(247, 119, 14, 1)"></path><path d="M300 924L324 948M252 924L276 948L300 948M492 948L516 972L540 972L564 972L588 972L612 972M348 948L372 924M108 924L132 924M-12 900L12 924L36 924L60 924L84 924L108 924L132 948L156 948L180 948L204 948L228 948L252 924L276 924L300 924L324 924L348 948L372 948L396 948L420 924L444 924L468 948L492 948L516 948" stroke="rgba(247, 119, 14, 0.52)" stroke-width="4"></path><path d="M510 948 a6 6 0 1 0 12 0 a6 6 0 1 0 -12 0zM318 948 a6 6 0 1 0 12 0 a6 6 0 1 0 -12 0zM294 948 a6 6 0 1 0 12 0 a6 6 0 1 0 -12 0zM606 972 a6 6 0 1 0 12 0 a6 6 0 1 0 -12 0zM366 924 a6 6 0 1 0 12 0 a6 6 0 1 0 -12 0zM126 924 a6 6 0 1 0 12 0 a6 6 0 1 0 -12 0z" fill="rgba(247, 119, 14, 0.52)"></path><path d="M204 588L228 588M900 588L924 564L948 564L972 564M1356 540L1380 540M1284 540L1308 516L1332 492L1356 492L1380 492L1404 468L1428 468L1452 468L1476 468L1500 468L1524 468L1548 468L1572 468L1596 468L1620 468L1644 468L1668 468L1692 468L1716 492L1740 492L1764 492L1788 492M300 564L324 564L348 564L372 564L396 564L420 564L444 564L468 564L492 564M708 540L732 516L756 516L780 516L804 516L828 516L852 540L876 540M996 588L1020 564L1044 564L1068 564L1092 564L1116 564L1140 564L1164 564L1188 564M852 588L876 564L900 564L924 540L948 540M660 540L684 516L708 516M828 564L852 564M612 540L636 516L660 516M1524 492L1548 516L1572 516L1596 492L1620 492L1644 492L1668 492L1692 492L1716 516M1380 516L1404 516M1260 540L1284 516L1308 492L1332 468L1356 468L1380 468M1500 492L1524 516L1548 540M108 636L132 636M-12 660L12 660L36 636L60 636L84 636L108 636L132 612L156 612L180 612L204 588L228 564L252 564L276 564L300 564L324 588L348 588L372 588L396 588L420 588L444 588L468 588L492 588L516 564L540 564L564 564L588 540L612 540L636 540L660 540L684 540L708 540L732 540L756 540L780 540L804 540L828 564L852 588L876 588L900 588L924 588L948 588L972 588L996 588L1020 588L1044 588L1068 588L1092 588L1116 588L1140 588L1164 588L1188 588L1212 588L1236 564L1260 540L1284 540L1308 540L1332 540L1356 540L1380 516L1404 492L1428 492L1452 492L1476 492L1500 492L1524 492L1548 492" stroke="rgba(247, 119, 14, 0.24)" stroke-width="4"></path><path d="M1542 492 a6 6 0 1 0 12 0 a6 6 0 1 0 -12 0zM222 588 a6 6 0 1 0 12 0 a6 6 0 1 0 -12 0zM966 564 a6 6 0 1 0 12 0 a6 6 0 1 0 -12 0zM1374 540 a6 6 0 1 0 12 0 a6 6 0 1 0 -12 0zM1782 492 a6 6 0 1 0 12 0 a6 6 0 1 0 -12 0zM486 564 a6 6 0 1 0 12 0 a6 6 0 1 0 -12 0zM870 540 a6 6 0 1 0 12 0 a6 6 0 1 0 -12 0zM1182 564 a6 6 0 1 0 12 0 a6 6 0 1 0 -12 0zM942 540 a6 6 0 1 0 12 0 a6 6 0 1 0 -12 0zM702 516 a6 6 0 1 0 12 0 a6 6 0 1 0 -12 0zM846 564 a6 6 0 1 0 12 0 a6 6 0 1 0 -12 0zM654 516 a6 6 0 1 0 12 0 a6 6 0 1 0 -12 0zM1710 516 a6 6 0 1 0 12 0 a6 6 0 1 0 -12 0zM1398 516 a6 6 0 1 0 12 0 a6 6 0 1 0 -12 0zM1374 468 a6 6 0 1 0 12 0 a6 6 0 1 0 -12 0zM1542 540 a6 6 0 1 0 12 0 a6 6 0 1 0 -12 0zM126 636 a6 6 0 1 0 12 0 a6 6 0 1 0 -12 0z" fill="rgba(247, 119, 14, 0.24)"></path><path d="M468 996L492 972M420 972L444 948M252 972L276 996L300 996L324 996L348 996L372 996L396 996M684 996L708 972L732 972M444 972L468 972M756 996L780 972M804 996L828 972L852 972L876 972L900 972L924 996L948 996L972 996L996 996M660 996L684 972L708 948L732 948M636 996L660 972M-12 924L12 948L36 948L60 948L84 948L108 948L132 972L156 972L180 972L204 972L228 972L252 972L276 972L300 972L324 972L348 972L372 972L396 972L420 972L444 972L468 996L492 996L516 996L540 996L564 996L588 996L612 996L636 996L660 996L684 996L708 996L732 996L756 996L780 996L804 996L828 996" stroke="rgba(247, 119, 14, 0.24)" stroke-width="4"></path><path d="M822 996 a6 6 0 1 0 12 0 a6 6 0 1 0 -12 0zM486 972 a6 6 0 1 0 12 0 a6 6 0 1 0 -12 0zM438 948 a6 6 0 1 0 12 0 a6 6 0 1 0 -12 0zM390 996 a6 6 0 1 0 12 0 a6 6 0 1 0 -12 0zM726 972 a6 6 0 1 0 12 0 a6 6 0 1 0 -12 0zM462 972 a6 6 0 1 0 12 0 a6 6 0 1 0 -12 0zM774 972 a6 6 0 1 0 12 0 a6 6 0 1 0 -12 0zM990 996 a6 6 0 1 0 12 0 a6 6 0 1 0 -12 0zM726 948 a6 6 0 1 0 12 0 a6 6 0 1 0 -12 0zM654 972 a6 6 0 1 0 12 0 a6 6 0 1 0 -12 0z" fill="rgba(247, 119, 14, 0.24)"></path><path d="M996 492L1020 516L1044 540L1068 540L1092 540L1116 540L1140 540M84 612L108 612M588 516L612 516M1044 492L1068 468M900 516L924 492L948 492L972 468L996 468L1020 468M948 516L972 516L996 516L1020 540M1212 468L1236 492L1260 492L1284 468L1308 468M1188 492L1212 492L1236 516L1260 516M1164 492L1188 516L1212 516L1236 540M1140 492L1164 468L1188 468M852 516L876 492M828 492L852 492L876 468L900 468L924 468L948 468L972 444L996 444M1068 492L1092 516M-12 636L12 636L36 612L60 612L84 612L108 588L132 588L156 588L180 588L204 564L228 540L252 540L276 540L300 540L324 540L348 540L372 540L396 540L420 540L444 540L468 540L492 540L516 540L540 540L564 540L588 516L612 492L636 492L660 492L684 492L708 492L732 492L756 492L780 492L804 492L828 492L852 516L876 516L900 516L924 516L948 516L972 492L996 492L1020 492L1044 492L1068 492L1092 492L1116 492L1140 492L1164 492L1188 492L1212 468L1236 468L1260 468" stroke="rgba(247, 119, 14, 1)" stroke-width="4"></path><path d="M1254 468 a6 6 0 1 0 12 0 a6 6 0 1 0 -12 0zM1134 540 a6 6 0 1 0 12 0 a6 6 0 1 0 -12 0zM102 612 a6 6 0 1 0 12 0 a6 6 0 1 0 -12 0zM606 516 a6 6 0 1 0 12 0 a6 6 0 1 0 -12 0zM1062 468 a6 6 0 1 0 12 0 a6 6 0 1 0 -12 0zM1014 468 a6 6 0 1 0 12 0 a6 6 0 1 0 -12 0zM1014 540 a6 6 0 1 0 12 0 a6 6 0 1 0 -12 0zM1302 468 a6 6 0 1 0 12 0 a6 6 0 1 0 -12 0zM1254 516 a6 6 0 1 0 12 0 a6 6 0 1 0 -12 0zM1230 540 a6 6 0 1 0 12 0 a6 6 0 1 0 -12 0zM1182 468 a6 6 0 1 0 12 0 a6 6 0 1 0 -12 0zM870 492 a6 6 0 1 0 12 0 a6 6 0 1 0 -12 0zM990 444 a6 6 0 1 0 12 0 a6 6 0 1 0 -12 0zM1086 516 a6 6 0 1 0 12 0 a6 6 0 1 0 -12 0z" fill="rgba(247, 119, 14, 1)"></path><path d="M2244 1020L2268 1044L2292 1044L2316 1044L2340 1044L2364 1020L2388 1020M2004 996L2028 972L2052 972L2076 972L2100 972L2124 972L2148 972L2172 972L2196 972L2220 972L2244 972L2268 972L2292 972L2316 972L2340 972M684 1020L708 1044L732 1044L756 1044L780 1044L804 1044L828 1044M1980 996L2004 1020L2028 1020L2052 1020L2076 1044M588 1020L612 1044L636 1044L660 1044L684 1044M228 996L252 996M1452 948L1476 972L1500 972L1524 996M1788 996L1812 1020L1836 1044L1860 1044L1884 1044L1908 1044L1932 1044L1956 1044L1980 1044L2004 1044L2028 1044M1812 996L1836 996L1860 996L1884 996L1908 996L1932 972L1956 972L1980 972L2004 972L2028 948L2052 948L2076 924L2100 924L2124 924L2148 948L2172 948L2196 948L2220 948L2244 948L2268 948L2292 948L2316 948L2340 948L2364 948L2388 948M1644 972L1668 996L1692 1020L1716 1020L1740 1020L1764 1020L1788 1020M1332 972L1356 972L1380 972L1404 972L1428 972L1452 972L1476 996L1500 996M1932 996L1956 1020L1980 1020M1068 996L1092 1020M1164 972L1188 996L1212 996L1236 996L1260 1020L1284 1020L1308 1020L1332 1044L1356 1044L1380 1044L1404 1044L1428 1044L1452 1044L1476 1044L1500 1044L1524 1044L1548 1044L1572 1044L1596 1044L1620 1044L1644 1044L1668 1020M852 1020L876 996L900 996M396 1020L420 1044L444 1044L468 1044L492 1044L516 1044L540 1044L564 1044L588 1044L612 1068L636 1068L660 1068L684 1068L708 1068L732 1068L756 1068L780 1068L804 1068L828 1068L852 1092L876 1092L900 1092L924 1092L948 1092L972 1092L996 1116M1044 1020L1068 1020L1092 1044L1116 1044L1140 1044L1164 1020L1188 1020L1212 1020L1236 1020L1260 1044L1284 1068L1308 1068L1332 1068L1356 1068L1380 1068L1404 1068L1428 1068L1452 1068L1476 1068M1212 948L1236 924L1260 924M924 1020L948 1044L972 1044L996 1044L1020 1044L1044 1044L1068 1044L1092 1068L1116 1068L1140 1092L1164 1092L1188 1092M1380 948L1404 924L1428 924L1452 924L1476 924M876 1020L900 1044L924 1044L948 1068L972 1068L996 1068L1020 1068L1044 1068L1068 1068L1092 1092L1116 1092M1284 972L1308 948L1332 924M2316 1020L2340 996L2364 996L2388 996M1548 972L1572 996L1596 996L1620 996L1644 996M-12 948L12 972L36 972L60 972L84 972L108 972L132 996L156 996L180 996L204 996L228 996L252 1020L276 1020L300 1020L324 1020L348 1020L372 1020L396 1020L420 1020L444 1020L468 1020L492 1020L516 1020L540 1020L564 1020L588 1020L612 1020L636 1020L660 1020L684 1020L708 1020L732 1020L756 1020L780 1020L804 1020L828 1020L852 1020L876 1020L900 1020L924 1020L948 1020L972 1020L996 1020L1020 1020L1044 1020L1068 996L1092 996L1116 996L1140 972L1164 972L1188 972L1212 948L1236 948L1260 972L1284 972L1308 972L1332 972L1356 948L1380 948L1404 948L1428 948L1452 948L1476 948L1500 948L1524 972L1548 972L1572 972L1596 972L1620 972L1644 972L1668 972L1692 996L1716 996L1740 996L1764 996L1788 996L1812 996L1836 1020L1860 1020L1884 1020L1908 1020L1932 996L1956 996L1980 996L2004 996L2028 996L2052 996L2076 996L2100 996L2124 996L2148 1020L2172 1020L2196 1020L2220 1020L2244 1020L2268 1020L2292 1020L2316 1020L2340 1020" stroke="rgba(247, 119, 14, 1)" stroke-width="4"></path><path d="M2334 1020 a6 6 0 1 0 12 0 a6 6 0 1 0 -12 0zM2382 1020 a6 6 0 1 0 12 0 a6 6 0 1 0 -12 0zM2334 972 a6 6 0 1 0 12 0 a6 6 0 1 0 -12 0zM822 1044 a6 6 0 1 0 12 0 a6 6 0 1 0 -12 0zM2070 1044 a6 6 0 1 0 12 0 a6 6 0 1 0 -12 0zM678 1044 a6 6 0 1 0 12 0 a6 6 0 1 0 -12 0zM246 996 a6 6 0 1 0 12 0 a6 6 0 1 0 -12 0zM1518 996 a6 6 0 1 0 12 0 a6 6 0 1 0 -12 0zM2022 1044 a6 6 0 1 0 12 0 a6 6 0 1 0 -12 0zM2382 948 a6 6 0 1 0 12 0 a6 6 0 1 0 -12 0zM1782 1020 a6 6 0 1 0 12 0 a6 6 0 1 0 -12 0zM1494 996 a6 6 0 1 0 12 0 a6 6 0 1 0 -12 0zM1974 1020 a6 6 0 1 0 12 0 a6 6 0 1 0 -12 0zM1086 1020 a6 6 0 1 0 12 0 a6 6 0 1 0 -12 0zM1662 1020 a6 6 0 1 0 12 0 a6 6 0 1 0 -12 0zM894 996 a6 6 0 1 0 12 0 a6 6 0 1 0 -12 0zM990 1116 a6 6 0 1 0 12 0 a6 6 0 1 0 -12 0zM1470 1068 a6 6 0 1 0 12 0 a6 6 0 1 0 -12 0zM1254 924 a6 6 0 1 0 12 0 a6 6 0 1 0 -12 0zM1182 1092 a6 6 0 1 0 12 0 a6 6 0 1 0 -12 0zM1470 924 a6 6 0 1 0 12 0 a6 6 0 1 0 -12 0zM1110 1092 a6 6 0 1 0 12 0 a6 6 0 1 0 -12 0zM1326 924 a6 6 0 1 0 12 0 a6 6 0 1 0 -12 0zM2382 996 a6 6 0 1 0 12 0 a6 6 0 1 0 -12 0zM1638 996 a6 6 0 1 0 12 0 a6 6 0 1 0 -12 0z" fill="rgba(247, 119, 14, 1)"></path><path d="M1284 444L1308 420L1332 420L1356 420L1380 420L1404 420L1428 420L1452 420L1476 420L1500 396L1524 396L1548 396L1572 372L1596 372L1620 372M636 468L660 444L684 444L708 444L732 444L756 444L780 420L804 420L828 420L852 420L876 396L900 396L924 396L948 396L972 396L996 396L1020 396L1044 396L1068 396L1092 396L1116 396L1140 396L1164 396L1188 396L1212 396L1236 396L1260 396L1284 396L1308 396L1332 396L1356 396L1380 396L1404 396L1428 396L1452 396M1068 444L1092 420L1116 420L1140 420L1164 420M468 516L492 492L516 492L540 492L564 492M900 420L924 444L948 444M1692 444L1716 420L1740 420L1764 396L1788 396L1812 396L1836 396L1860 396L1884 396L1908 396M1812 444L1836 468L1860 468L1884 468L1908 468L1932 468L1956 468L1980 468L2004 468L2028 468L2052 468L2076 444L2100 420L2124 420L2148 396L2172 396L2196 372L2220 348L2244 324L2268 324M1668 444L1692 420M828 444L852 468M1620 444L1644 420L1668 420L1692 396L1716 396M420 516L444 492L468 492L492 468L516 468L540 468L564 468L588 468L612 444L636 444M1500 420L1524 444M1188 444L1212 420L1236 420L1260 420L1284 420M876 420L900 444M996 420L1020 420L1044 420L1068 420M1788 444L1812 420L1836 420L1860 420L1884 420L1908 420L1932 420L1956 420L1980 420L2004 420L2028 420L2052 420M372 516L396 492L420 492M1596 420L1620 420L1644 396L1668 396L1692 372L1716 372L1740 372M1476 444L1500 444M-12 612L12 612L36 588L60 588L84 588L108 564L132 564L156 564L180 564L204 540L228 516L252 516L276 516L300 516L324 516L348 516L372 516L396 516L420 516L444 516L468 516L492 516L516 516L540 516L564 516L588 492L612 468L636 468L660 468L684 468L708 468L732 468L756 468L780 444L804 444L828 444L852 444L876 420L900 420L924 420L948 420L972 420L996 420L1020 444L1044 444L1068 444L1092 444L1116 444L1140 444L1164 444L1188 444L1212 444L1236 444L1260 444L1284 444L1308 444L1332 444L1356 444L1380 444L1404 444L1428 444L1452 444L1476 444L1500 420L1524 420L1548 420L1572 420L1596 420L1620 444L1644 444L1668 444L1692 444L1716 444L1740 444L1764 444L1788 444L1812 444L1836 444" stroke="rgba(247, 119, 14, 0.24)" stroke-width="4"></path><path d="M1830 444 a6 6 0 1 0 12 0 a6 6 0 1 0 -12 0zM1614 372 a6 6 0 1 0 12 0 a6 6 0 1 0 -12 0zM1446 396 a6 6 0 1 0 12 0 a6 6 0 1 0 -12 0zM1158 420 a6 6 0 1 0 12 0 a6 6 0 1 0 -12 0zM558 492 a6 6 0 1 0 12 0 a6 6 0 1 0 -12 0zM942 444 a6 6 0 1 0 12 0 a6 6 0 1 0 -12 0zM1902 396 a6 6 0 1 0 12 0 a6 6 0 1 0 -12 0zM2262 324 a6 6 0 1 0 12 0 a6 6 0 1 0 -12 0zM1686 420 a6 6 0 1 0 12 0 a6 6 0 1 0 -12 0zM846 468 a6 6 0 1 0 12 0 a6 6 0 1 0 -12 0zM1710 396 a6 6 0 1 0 12 0 a6 6 0 1 0 -12 0zM630 444 a6 6 0 1 0 12 0 a6 6 0 1 0 -12 0zM1518 444 a6 6 0 1 0 12 0 a6 6 0 1 0 -12 0zM1278 420 a6 6 0 1 0 12 0 a6 6 0 1 0 -12 0zM894 444 a6 6 0 1 0 12 0 a6 6 0 1 0 -12 0zM1062 420 a6 6 0 1 0 12 0 a6 6 0 1 0 -12 0zM2046 420 a6 6 0 1 0 12 0 a6 6 0 1 0 -12 0zM414 492 a6 6 0 1 0 12 0 a6 6 0 1 0 -12 0zM1734 372 a6 6 0 1 0 12 0 a6 6 0 1 0 -12 0zM1494 444 a6 6 0 1 0 12 0 a6 6 0 1 0 -12 0z" fill="rgba(247, 119, 14, 0.24)"></path><path d="M396 1092L420 1068L444 1068L468 1068L492 1068L516 1068M300 1044L324 1068L348 1068M348 1044L372 1044L396 1044M372 1068L396 1068M-12 972L12 996L36 996L60 996L84 996L108 996L132 1020L156 1020L180 1020L204 1020L228 1020L252 1044L276 1044L300 1044L324 1044L348 1044L372 1068L396 1092L420 1092L444 1092L468 1092L492 1092L516 1092" stroke="rgba(247, 119, 14, 0.52)" stroke-width="4"></path><path d="M510 1092 a6 6 0 1 0 12 0 a6 6 0 1 0 -12 0zM510 1068 a6 6 0 1 0 12 0 a6 6 0 1 0 -12 0zM342 1068 a6 6 0 1 0 12 0 a6 6 0 1 0 -12 0zM390 1044 a6 6 0 1 0 12 0 a6 6 0 1 0 -12 0zM390 1068 a6 6 0 1 0 12 0 a6 6 0 1 0 -12 0z" fill="rgba(247, 119, 14, 0.52)"></path><path d="M396 468L420 444L444 444M348 468L372 492M372 468L396 444M564 420L588 444M540 444L564 444M324 492L348 492M-12 588L12 588L36 564L60 564L84 564L108 540L132 540L156 540L180 540L204 516L228 492L252 492L276 492L300 492L324 492L348 468L372 468L396 468L420 468L444 468L468 444L492 444L516 444L540 444L564 420L588 420L612 420L636 420L660 420L684 420" stroke="rgba(247, 119, 14, 0.52)" stroke-width="4"></path><path d="M678 420 a6 6 0 1 0 12 0 a6 6 0 1 0 -12 0zM438 444 a6 6 0 1 0 12 0 a6 6 0 1 0 -12 0zM366 492 a6 6 0 1 0 12 0 a6 6 0 1 0 -12 0zM390 444 a6 6 0 1 0 12 0 a6 6 0 1 0 -12 0zM582 444 a6 6 0 1 0 12 0 a6 6 0 1 0 -12 0zM558 444 a6 6 0 1 0 12 0 a6 6 0 1 0 -12 0zM342 492 a6 6 0 1 0 12 0 a6 6 0 1 0 -12 0z" fill="rgba(247, 119, 14, 0.52)"></path><path d="M540 1140L564 1116L588 1116L612 1116L636 1116L660 1116L684 1116L708 1116L732 1092L756 1092L780 1092L804 1092L828 1092M1140 1116L1164 1140L1188 1164L1212 1164M36 1020L60 1044L84 1044L108 1044M780 1116L804 1140M828 1116L852 1140L876 1140L900 1140M1212 1140L1236 1116L1260 1116L1284 1116L1308 1092L1332 1092L1356 1092L1380 1092L1404 1092L1428 1092L1452 1092L1476 1092L1500 1092L1524 1092L1548 1092L1572 1092L1596 1092L1620 1092M1044 1116L1068 1092M708 1140L732 1164L756 1164L780 1164L804 1164L828 1164L852 1164L876 1164L900 1164L924 1164L948 1164L972 1164L996 1164L1020 1164M636 1140L660 1164L684 1164L708 1164M1020 1116L1044 1092M756 1116L780 1140M948 1140L972 1116M1188 1140L1212 1116L1236 1092L1260 1092M1092 1116L1116 1140L1140 1140L1164 1164L1188 1188L1212 1188L1236 1188L1260 1188L1284 1188L1308 1188L1332 1188L1356 1188L1380 1164L1404 1164L1428 1164L1452 1164L1476 1164L1500 1188M-12 996L12 1020L36 1020L60 1020L84 1020L108 1020L132 1044L156 1044L180 1044L204 1044L228 1044L252 1068L276 1068L300 1092L324 1092L348 1092L372 1092L396 1116L420 1116L444 1116L468 1116L492 1116L516 1116L540 1140L564 1140L588 1140L612 1140L636 1140L660 1140L684 1140L708 1140L732 1116L756 1116L780 1116L804 1116L828 1116L852 1116L876 1116L900 1116L924 1116L948 1140L972 1140L996 1140L1020 1116L1044 1116L1068 1116L1092 1116L1116 1116L1140 1116L1164 1116L1188 1140L1212 1140L1236 1140L1260 1140L1284 1140L1308 1116" stroke="rgba(247, 119, 14, 0.24)" stroke-width="4"></path><path d="M1302 1116 a6 6 0 1 0 12 0 a6 6 0 1 0 -12 0zM822 1092 a6 6 0 1 0 12 0 a6 6 0 1 0 -12 0zM1206 1164 a6 6 0 1 0 12 0 a6 6 0 1 0 -12 0zM102 1044 a6 6 0 1 0 12 0 a6 6 0 1 0 -12 0zM798 1140 a6 6 0 1 0 12 0 a6 6 0 1 0 -12 0zM894 1140 a6 6 0 1 0 12 0 a6 6 0 1 0 -12 0zM1614 1092 a6 6 0 1 0 12 0 a6 6 0 1 0 -12 0zM1062 1092 a6 6 0 1 0 12 0 a6 6 0 1 0 -12 0zM1014 1164 a6 6 0 1 0 12 0 a6 6 0 1 0 -12 0zM702 1164 a6 6 0 1 0 12 0 a6 6 0 1 0 -12 0zM1038 1092 a6 6 0 1 0 12 0 a6 6 0 1 0 -12 0zM774 1140 a6 6 0 1 0 12 0 a6 6 0 1 0 -12 0zM966 1116 a6 6 0 1 0 12 0 a6 6 0 1 0 -12 0zM1254 1092 a6 6 0 1 0 12 0 a6 6 0 1 0 -12 0zM1494 1188 a6 6 0 1 0 12 0 a6 6 0 1 0 -12 0z" fill="rgba(247, 119, 14, 0.24)"></path><path d="M60 540L84 516M-12 564L12 564L36 540L60 540L84 540L108 516L132 516L156 516L180 516L204 492L228 468L252 468L276 468L300 468L324 468L348 444" stroke="rgba(247, 119, 14, 0.24)" stroke-width="4"></path><path d="M342 444 a6 6 0 1 0 12 0 a6 6 0 1 0 -12 0zM78 516 a6 6 0 1 0 12 0 a6 6 0 1 0 -12 0z" fill="rgba(247, 119, 14, 0.24)"></path><path d="M684 1188L708 1212M972 1236L996 1212L1020 1212L1044 1212L1068 1212M996 1236L1020 1260L1044 1260L1068 1284L1092 1284L1116 1284L1140 1284L1164 1284L1188 1284L1212 1308L1236 1308L1260 1308L1284 1308L1308 1308L1332 1308L1356 1284L1380 1284M1260 1260L1284 1284L1308 1284L1332 1284M1116 1260L1140 1236L1164 1236M1476 1260L1500 1236L1524 1236L1548 1236L1572 1236M1356 1260L1380 1236L1404 1236M1188 1260L1212 1236L1236 1236L1260 1236L1284 1236M1068 1236L1092 1236M1308 1260L1332 1236L1356 1236M1428 1260L1452 1236L1476 1236M588 1164L612 1164L636 1164M852 1236L876 1212L900 1212L924 1212L948 1212L972 1212L996 1188L1020 1188L1044 1188L1068 1188L1092 1164L1116 1164M1212 1260L1236 1284L1260 1284M756 1212L780 1212L804 1212L828 1212L852 1212L876 1188L900 1188L924 1188M732 1212L756 1188L780 1188L804 1188L828 1188L852 1188M-12 1020L12 1044L36 1068L60 1068L84 1068L108 1068L132 1068L156 1068L180 1068L204 1068L228 1068L252 1092L276 1092L300 1116L324 1116L348 1116L372 1116L396 1140L420 1140L444 1140L468 1140L492 1140L516 1140L540 1164L564 1164L588 1164L612 1188L636 1188L660 1188L684 1188L708 1188L732 1212L756 1212L780 1236L804 1236L828 1236L852 1236L876 1236L900 1236L924 1236L948 1236L972 1236L996 1236L1020 1236L1044 1236L1068 1236L1092 1260L1116 1260L1140 1260L1164 1260L1188 1260L1212 1260L1236 1260L1260 1260L1284 1260L1308 1260L1332 1260L1356 1260L1380 1260L1404 1260L1428 1260L1452 1260L1476 1260L1500 1260L1524 1260" stroke="rgba(247, 119, 14, 0.24)" stroke-width="4"></path><path d="M1518 1260 a6 6 0 1 0 12 0 a6 6 0 1 0 -12 0zM702 1212 a6 6 0 1 0 12 0 a6 6 0 1 0 -12 0zM1062 1212 a6 6 0 1 0 12 0 a6 6 0 1 0 -12 0zM1374 1284 a6 6 0 1 0 12 0 a6 6 0 1 0 -12 0zM1326 1284 a6 6 0 1 0 12 0 a6 6 0 1 0 -12 0zM1158 1236 a6 6 0 1 0 12 0 a6 6 0 1 0 -12 0zM1566 1236 a6 6 0 1 0 12 0 a6 6 0 1 0 -12 0zM1398 1236 a6 6 0 1 0 12 0 a6 6 0 1 0 -12 0zM1278 1236 a6 6 0 1 0 12 0 a6 6 0 1 0 -12 0zM1086 1236 a6 6 0 1 0 12 0 a6 6 0 1 0 -12 0zM1350 1236 a6 6 0 1 0 12 0 a6 6 0 1 0 -12 0zM1470 1236 a6 6 0 1 0 12 0 a6 6 0 1 0 -12 0zM630 1164 a6 6 0 1 0 12 0 a6 6 0 1 0 -12 0zM1110 1164 a6 6 0 1 0 12 0 a6 6 0 1 0 -12 0zM1254 1284 a6 6 0 1 0 12 0 a6 6 0 1 0 -12 0zM918 1188 a6 6 0 1 0 12 0 a6 6 0 1 0 -12 0zM846 1188 a6 6 0 1 0 12 0 a6 6 0 1 0 -12 0z" fill="rgba(247, 119, 14, 0.24)"></path><path d="M36 516L60 516M-12 540L12 540L36 516L60 492L84 492L108 492L132 492L156 492L180 492" stroke="rgba(247, 119, 14, 0.52)" stroke-width="4"></path><path d="M174 492 a6 6 0 1 0 12 0 a6 6 0 1 0 -12 0zM54 516 a6 6 0 1 0 12 0 a6 6 0 1 0 -12 0z" fill="rgba(247, 119, 14, 0.52)"></path><path d="M1116 1308L1140 1332M1500 1284L1524 1308L1548 1308M180 1092L204 1116M780 1260L804 1260M1572 1308L1596 1284L1620 1284L1644 1284L1668 1284L1692 1284L1716 1260L1740 1260L1764 1260L1788 1260L1812 1260L1836 1260L1860 1260L1884 1260L1908 1260L1932 1260L1956 1236L1980 1236L2004 1236L2028 1236L2052 1236M636 1236L660 1212L684 1212M972 1284L996 1260M1548 1284L1572 1284L1596 1260L1620 1260L1644 1260L1668 1260M1140 1308L1164 1308L1188 1308M1236 1332L1260 1356L1284 1356L1308 1356L1332 1356L1356 1356L1380 1332M1452 1284L1476 1308L1500 1308M1404 1284L1428 1308L1452 1308M252 1116L276 1140M468 1188L492 1164M1188 1332L1212 1356M1020 1308L1044 1332L1068 1332L1092 1332L1116 1332M1380 1308L1404 1308M852 1284L876 1260L900 1260L924 1260L948 1260L972 1260M-12 1044L12 1068L36 1092L60 1092L84 1092L108 1092L132 1092L156 1092L180 1092L204 1092L228 1092L252 1116L276 1116L300 1140L324 1140L348 1140L372 1140L396 1164L420 1164L444 1188L468 1188L492 1188L516 1188L540 1188L564 1188L588 1188L612 1212L636 1236L660 1236L684 1236L708 1236L732 1236L756 1236L780 1260L804 1284L828 1284L852 1284L876 1284L900 1284L924 1284L948 1284L972 1284L996 1308L1020 1308L1044 1308L1068 1308L1092 1308L1116 1308L1140 1308L1164 1332L1188 1332L1212 1332L1236 1332L1260 1332L1284 1332L1308 1332L1332 1332L1356 1308L1380 1308L1404 1284L1428 1284L1452 1284L1476 1284L1500 1284L1524 1284L1548 1284L1572 1308L1596 1308L1620 1308L1644 1308L1668 1308L1692 1308L1716 1284" stroke="rgba(247, 119, 14, 0.52)" stroke-width="4"></path><path d="M1710 1284 a6 6 0 1 0 12 0 a6 6 0 1 0 -12 0zM1134 1332 a6 6 0 1 0 12 0 a6 6 0 1 0 -12 0zM1542 1308 a6 6 0 1 0 12 0 a6 6 0 1 0 -12 0zM198 1116 a6 6 0 1 0 12 0 a6 6 0 1 0 -12 0zM798 1260 a6 6 0 1 0 12 0 a6 6 0 1 0 -12 0zM2046 1236 a6 6 0 1 0 12 0 a6 6 0 1 0 -12 0zM678 1212 a6 6 0 1 0 12 0 a6 6 0 1 0 -12 0zM990 1260 a6 6 0 1 0 12 0 a6 6 0 1 0 -12 0zM1662 1260 a6 6 0 1 0 12 0 a6 6 0 1 0 -12 0zM1182 1308 a6 6 0 1 0 12 0 a6 6 0 1 0 -12 0zM1374 1332 a6 6 0 1 0 12 0 a6 6 0 1 0 -12 0zM1494 1308 a6 6 0 1 0 12 0 a6 6 0 1 0 -12 0zM1446 1308 a6 6 0 1 0 12 0 a6 6 0 1 0 -12 0zM270 1140 a6 6 0 1 0 12 0 a6 6 0 1 0 -12 0zM486 1164 a6 6 0 1 0 12 0 a6 6 0 1 0 -12 0zM1206 1356 a6 6 0 1 0 12 0 a6 6 0 1 0 -12 0zM1110 1332 a6 6 0 1 0 12 0 a6 6 0 1 0 -12 0zM1398 1308 a6 6 0 1 0 12 0 a6 6 0 1 0 -12 0zM966 1260 a6 6 0 1 0 12 0 a6 6 0 1 0 -12 0z" fill="rgba(247, 119, 14, 0.52)"></path><path d="M684 396L708 396L732 396L756 396L780 396L804 396L828 396L852 372L876 372L900 372L924 372L948 372L972 372M732 372L756 348L780 348L804 348L828 348L852 348L876 348L900 348L924 348M156 468L180 444L204 444M636 396L660 372L684 372L708 348L732 348M492 420L516 396L540 396L564 372L588 372M132 468L156 444M-12 516L12 516L36 492L60 468L84 468L108 468L132 468L156 468L180 468L204 468L228 444L252 444L276 444L300 444L324 444L348 420L372 420L396 420L420 420L444 420L468 420L492 420L516 420L540 420L564 396L588 396L612 396L636 396L660 396L684 396L708 372L732 372L756 372L780 372" stroke="rgba(247, 119, 14, 1)" stroke-width="4"></path><path d="M774 372 a6 6 0 1 0 12 0 a6 6 0 1 0 -12 0zM966 372 a6 6 0 1 0 12 0 a6 6 0 1 0 -12 0zM918 348 a6 6 0 1 0 12 0 a6 6 0 1 0 -12 0zM198 444 a6 6 0 1 0 12 0 a6 6 0 1 0 -12 0zM726 348 a6 6 0 1 0 12 0 a6 6 0 1 0 -12 0zM582 372 a6 6 0 1 0 12 0 a6 6 0 1 0 -12 0zM150 444 a6 6 0 1 0 12 0 a6 6 0 1 0 -12 0z" fill="rgba(247, 119, 14, 1)"></path><path d="M132 1116L156 1140M84 1116L108 1140L132 1140M156 1116L180 1116M-12 1068L12 1092L36 1116L60 1116L84 1116L108 1116L132 1116L156 1116L180 1140L204 1140L228 1116" stroke="rgba(247, 119, 14, 1)" stroke-width="4"></path><path d="M222 1116 a6 6 0 1 0 12 0 a6 6 0 1 0 -12 0zM150 1140 a6 6 0 1 0 12 0 a6 6 0 1 0 -12 0zM126 1140 a6 6 0 1 0 12 0 a6 6 0 1 0 -12 0zM174 1116 a6 6 0 1 0 12 0 a6 6 0 1 0 -12 0z" fill="rgba(247, 119, 14, 1)"></path><path d="M-12 492L12 492L36 468L60 444L84 444L108 444L132 420L156 420L180 420L204 420L228 420L252 420L276 420L300 420L324 420L348 396L372 396L396 396L420 396L444 396L468 396" stroke="rgba(247, 119, 14, 1)" stroke-width="4"></path><path d="M462 396 a6 6 0 1 0 12 0 a6 6 0 1 0 -12 0z" fill="rgba(247, 119, 14, 1)"></path><path d="M1524 1332L1548 1356L1572 1356L1596 1356L1620 1356L1644 1356L1668 1380L1692 1380L1716 1380L1740 1380L1764 1380L1788 1380L1812 1380L1836 1380L1860 1380L1884 1380L1908 1380L1932 1356L1956 1332L1980 1308L2004 1308L2028 1308M852 1308L876 1308L900 1308L924 1308L948 1308L972 1308L996 1332L1020 1332M60 1140L84 1140M1332 1404L1356 1428L1380 1428L1404 1428L1428 1404L1452 1404L1476 1404M228 1164L252 1140M732 1260L756 1284M660 1260L684 1284L708 1284L732 1284M492 1212L516 1236L540 1236L564 1236L588 1236M1236 1380L1260 1380L1284 1380M1476 1332L1500 1356L1524 1356L1548 1380L1572 1380L1596 1380L1620 1404L1644 1404L1668 1404L1692 1404L1716 1404M1044 1380L1068 1356L1092 1356L1116 1356L1140 1356L1164 1356L1188 1356M468 1212L492 1236M900 1356L924 1332L948 1332L972 1332M1380 1356L1404 1356L1428 1356L1452 1356L1476 1356M1260 1404L1284 1404M1644 1332L1668 1332L1692 1356L1716 1356L1740 1356L1764 1356L1788 1356L1812 1356L1836 1356L1860 1356L1884 1356L1908 1356L1932 1332L1956 1308M1020 1356L1044 1356M-12 1092L12 1116L36 1140L60 1140L84 1164L108 1164L132 1164L156 1164L180 1164L204 1164L228 1164L252 1164L276 1164L300 1164L324 1164L348 1164L372 1164L396 1188L420 1188L444 1212L468 1212L492 1212L516 1212L540 1212L564 1212L588 1212L612 1236L636 1260L660 1260L684 1260L708 1260L732 1260L756 1260L780 1284L804 1308L828 1308L852 1308L876 1332L900 1356L924 1356L948 1356L972 1356L996 1356L1020 1356L1044 1380L1068 1380L1092 1380L1116 1380L1140 1380L1164 1380L1188 1380L1212 1380L1236 1380L1260 1404L1284 1428L1308 1428L1332 1404L1356 1380L1380 1356L1404 1332L1428 1332L1452 1332L1476 1332L1500 1332L1524 1332L1548 1332L1572 1332L1596 1332L1620 1332L1644 1332L1668 1356" stroke="rgba(247, 119, 14, 1)" stroke-width="4"></path><path d="M1662 1356 a6 6 0 1 0 12 0 a6 6 0 1 0 -12 0zM2022 1308 a6 6 0 1 0 12 0 a6 6 0 1 0 -12 0zM1014 1332 a6 6 0 1 0 12 0 a6 6 0 1 0 -12 0zM78 1140 a6 6 0 1 0 12 0 a6 6 0 1 0 -12 0zM1470 1404 a6 6 0 1 0 12 0 a6 6 0 1 0 -12 0zM246 1140 a6 6 0 1 0 12 0 a6 6 0 1 0 -12 0zM750 1284 a6 6 0 1 0 12 0 a6 6 0 1 0 -12 0zM726 1284 a6 6 0 1 0 12 0 a6 6 0 1 0 -12 0zM582 1236 a6 6 0 1 0 12 0 a6 6 0 1 0 -12 0zM1278 1380 a6 6 0 1 0 12 0 a6 6 0 1 0 -12 0zM1710 1404 a6 6 0 1 0 12 0 a6 6 0 1 0 -12 0zM1182 1356 a6 6 0 1 0 12 0 a6 6 0 1 0 -12 0zM486 1236 a6 6 0 1 0 12 0 a6 6 0 1 0 -12 0zM966 1332 a6 6 0 1 0 12 0 a6 6 0 1 0 -12 0zM1470 1356 a6 6 0 1 0 12 0 a6 6 0 1 0 -12 0zM1278 1404 a6 6 0 1 0 12 0 a6 6 0 1 0 -12 0zM1950 1308 a6 6 0 1 0 12 0 a6 6 0 1 0 -12 0zM1038 1356 a6 6 0 1 0 12 0 a6 6 0 1 0 -12 0z" fill="rgba(247, 119, 14, 1)"></path><path d="M1332 324L1356 300L1380 276L1404 276L1428 276L1452 276L1476 276L1500 276L1524 276L1548 276L1572 276L1596 276L1620 276L1644 276L1668 276L1692 276L1716 276L1740 276L1764 276L1788 252L1812 252L1836 276L1860 276M612 300L636 324L660 348M1668 348L1692 324L1716 324L1740 324L1764 324L1788 300L1812 300L1836 300L1860 300L1884 300L1908 300L1932 300L1956 300L1980 300L2004 300L2028 300L2052 300L2076 300L2100 300M780 324L804 300L828 276L852 276L876 276L900 276M1596 324L1620 324M732 324L756 300L780 300L804 276M276 396L300 372L324 372M1500 300L1524 324L1548 348M1356 324L1380 324L1404 324L1428 324L1452 324M1476 300L1500 324L1524 348L1548 372M1284 324L1308 348L1332 348M1884 348L1908 324L1932 324M1068 324L1092 300L1116 300L1140 300L1164 300L1188 300L1212 276L1236 276L1260 276L1284 276L1308 300L1332 300L1356 276M564 300L588 324L612 324L636 348M1548 324L1572 300L1596 300L1620 300L1644 300L1668 300L1692 300L1716 300L1740 300L1764 300M1164 324L1188 348L1212 372L1236 372L1260 372L1284 372L1308 372L1332 372M1020 324L1044 300L1068 300L1092 276L1116 276L1140 276L1164 276L1188 276M972 324L996 348L1020 348L1044 372L1068 372M828 324L852 300L876 300L900 300L924 300L948 300L972 300L996 300L1020 300L1044 276L1068 276M1812 324L1836 348L1860 348L1884 372L1908 372L1932 372L1956 372L1980 372L2004 372L2028 372L2052 372M-12 468L12 468L36 444L60 420L84 420L108 420L132 396L156 396L180 396L204 396L228 396L252 396L276 396L300 396L324 396L348 372L372 372L396 372L420 372L444 372L468 372L492 348L516 324L540 300L564 300L588 300L612 300L636 300L660 300L684 300L708 300L732 324L756 324L780 324L804 324L828 324L852 324L876 324L900 324L924 324L948 324L972 324L996 324L1020 324L1044 324L1068 324L1092 324L1116 324L1140 324L1164 324L1188 324L1212 324L1236 324L1260 324L1284 324L1308 324L1332 324L1356 324L1380 300L1404 300L1428 300L1452 300L1476 300L1500 300L1524 300L1548 324L1572 324L1596 324L1620 348L1644 348L1668 348L1692 348L1716 348L1740 348L1764 348L1788 324L1812 324L1836 324L1860 324L1884 348L1908 348L1932 348L1956 324" stroke="rgba(247, 119, 14, 0.52)" stroke-width="4"></path><path d="M1950 324 a6 6 0 1 0 12 0 a6 6 0 1 0 -12 0zM1854 276 a6 6 0 1 0 12 0 a6 6 0 1 0 -12 0zM654 348 a6 6 0 1 0 12 0 a6 6 0 1 0 -12 0zM2094 300 a6 6 0 1 0 12 0 a6 6 0 1 0 -12 0zM894 276 a6 6 0 1 0 12 0 a6 6 0 1 0 -12 0zM1614 324 a6 6 0 1 0 12 0 a6 6 0 1 0 -12 0zM798 276 a6 6 0 1 0 12 0 a6 6 0 1 0 -12 0zM318 372 a6 6 0 1 0 12 0 a6 6 0 1 0 -12 0zM1542 348 a6 6 0 1 0 12 0 a6 6 0 1 0 -12 0zM1446 324 a6 6 0 1 0 12 0 a6 6 0 1 0 -12 0zM1542 372 a6 6 0 1 0 12 0 a6 6 0 1 0 -12 0zM1326 348 a6 6 0 1 0 12 0 a6 6 0 1 0 -12 0zM1926 324 a6 6 0 1 0 12 0 a6 6 0 1 0 -12 0zM1350 276 a6 6 0 1 0 12 0 a6 6 0 1 0 -12 0zM630 348 a6 6 0 1 0 12 0 a6 6 0 1 0 -12 0zM1758 300 a6 6 0 1 0 12 0 a6 6 0 1 0 -12 0zM1326 372 a6 6 0 1 0 12 0 a6 6 0 1 0 -12 0zM1182 276 a6 6 0 1 0 12 0 a6 6 0 1 0 -12 0zM1062 372 a6 6 0 1 0 12 0 a6 6 0 1 0 -12 0zM1062 276 a6 6 0 1 0 12 0 a6 6 0 1 0 -12 0zM2046 372 a6 6 0 1 0 12 0 a6 6 0 1 0 -12 0z" fill="rgba(247, 119, 14, 0.52)"></path><path d="M1068 1404L1092 1428L1116 1428L1140 1428L1164 1428M444 1236L468 1236M348 1188L372 1212L396 1236L420 1260L444 1260M228 1188L252 1212L276 1212L300 1212L324 1212M156 1188L180 1212L204 1212L228 1212L252 1236L276 1236L300 1236L324 1236L348 1236L372 1236L396 1260M1212 1404L1236 1428L1260 1452L1284 1476L1308 1476L1332 1476L1356 1476L1380 1476L1404 1476L1428 1476L1452 1476L1476 1476M636 1284L660 1284M1188 1404L1212 1428M-12 1116L12 1140L36 1164L60 1164L84 1188L108 1188L132 1188L156 1188L180 1188L204 1188L228 1188L252 1188L276 1188L300 1188L324 1188L348 1188L372 1188L396 1212L420 1212L444 1236L468 1260L492 1260L516 1260L540 1260L564 1260L588 1260L612 1260L636 1284L660 1308L684 1308L708 1308L732 1308L756 1308L780 1308L804 1332L828 1332L852 1332L876 1356L900 1380L924 1380L948 1380L972 1380L996 1380L1020 1380L1044 1404L1068 1404L1092 1404L1116 1404L1140 1404L1164 1404L1188 1404L1212 1404L1236 1404L1260 1428L1284 1452" stroke="rgba(247, 119, 14, 0.24)" stroke-width="4"></path><path d="M1278 1452 a6 6 0 1 0 12 0 a6 6 0 1 0 -12 0zM1158 1428 a6 6 0 1 0 12 0 a6 6 0 1 0 -12 0zM462 1236 a6 6 0 1 0 12 0 a6 6 0 1 0 -12 0zM438 1260 a6 6 0 1 0 12 0 a6 6 0 1 0 -12 0zM318 1212 a6 6 0 1 0 12 0 a6 6 0 1 0 -12 0zM390 1260 a6 6 0 1 0 12 0 a6 6 0 1 0 -12 0zM1470 1476 a6 6 0 1 0 12 0 a6 6 0 1 0 -12 0zM654 1284 a6 6 0 1 0 12 0 a6 6 0 1 0 -12 0zM1206 1428 a6 6 0 1 0 12 0 a6 6 0 1 0 -12 0z" fill="rgba(247, 119, 14, 0.24)"></path><path d="M1452 252L1476 228L1500 228L1524 228L1548 228M1212 252L1236 228L1260 228L1284 228L1308 228L1332 228L1356 228L1380 228L1404 228L1428 228L1452 228L1476 204M204 372L228 372L252 372L276 372M420 348L444 324L468 324M348 348L372 324L396 324L420 324M708 252L732 276L756 276L780 276M1044 252L1068 228L1092 228M948 252L972 276L996 276L1020 276M996 252L1020 228L1044 228M684 276L708 276M1116 252L1140 228M1188 252L1212 228L1236 204L1260 204L1284 204L1308 204L1332 204M924 252L948 276M-12 444L12 444L36 420L60 396L84 396L108 396L132 372L156 372L180 372L204 372L228 348L252 348L276 348L300 348L324 348L348 348L372 348L396 348L420 348L444 348L468 348L492 324L516 300L540 276L564 276L588 276L612 276L636 276L660 276L684 276L708 252L732 252L756 252L780 252L804 252L828 252L852 252L876 252L900 252L924 252L948 252L972 252L996 252L1020 252L1044 252L1068 252L1092 252L1116 252L1140 252L1164 252L1188 252L1212 252L1236 252L1260 252L1284 252L1308 252L1332 252L1356 252L1380 252L1404 252L1428 252L1452 252L1476 252L1500 252L1524 252" stroke="rgba(247, 119, 14, 0.52)" stroke-width="4"></path><path d="M1518 252 a6 6 0 1 0 12 0 a6 6 0 1 0 -12 0zM1542 228 a6 6 0 1 0 12 0 a6 6 0 1 0 -12 0zM1470 204 a6 6 0 1 0 12 0 a6 6 0 1 0 -12 0zM270 372 a6 6 0 1 0 12 0 a6 6 0 1 0 -12 0zM462 324 a6 6 0 1 0 12 0 a6 6 0 1 0 -12 0zM414 324 a6 6 0 1 0 12 0 a6 6 0 1 0 -12 0zM774 276 a6 6 0 1 0 12 0 a6 6 0 1 0 -12 0zM1086 228 a6 6 0 1 0 12 0 a6 6 0 1 0 -12 0zM1014 276 a6 6 0 1 0 12 0 a6 6 0 1 0 -12 0zM1038 228 a6 6 0 1 0 12 0 a6 6 0 1 0 -12 0zM702 276 a6 6 0 1 0 12 0 a6 6 0 1 0 -12 0zM1134 228 a6 6 0 1 0 12 0 a6 6 0 1 0 -12 0zM1326 204 a6 6 0 1 0 12 0 a6 6 0 1 0 -12 0zM942 276 a6 6 0 1 0 12 0 a6 6 0 1 0 -12 0z" fill="rgba(247, 119, 14, 0.52)"></path><path d="M1356 1524L1380 1500L1404 1500L1428 1500L1452 1500L1476 1500M540 1284L564 1308L588 1308L612 1308M1308 1524L1332 1500L1356 1500M492 1284L516 1308L540 1308M204 1260L228 1236M1236 1500L1260 1476M1524 1524L1548 1500L1572 1500L1596 1476L1620 1476L1644 1476L1668 1476L1692 1476L1716 1476L1740 1476L1764 1476L1788 1476L1812 1476L1836 1476L1860 1476L1884 1476L1908 1476L1932 1476L1956 1476L1980 1452L2004 1452L2028 1452L2052 1452L2076 1452L2100 1428L2124 1428L2148 1428L2172 1428L2196 1452L2220 1452L2244 1452L2268 1452L2292 1452L2316 1452L2340 1452L2364 1476M180 1260L204 1236M1764 1524L1788 1500L1812 1500L1836 1500M348 1260L372 1260M1836 1524L1860 1524L1884 1524L1908 1524L1932 1524L1956 1524L1980 1524L2004 1524L2028 1524L2052 1524L2076 1524L2100 1524L2124 1524L2148 1524L2172 1524L2196 1524L2220 1524L2244 1524M1596 1524L1620 1500L1644 1500L1668 1500L1692 1500L1716 1500L1740 1500L1764 1500M1212 1500L1236 1476M1164 1452L1188 1452L1212 1452L1236 1452M132 1212L156 1212M1188 1476L1212 1476M2004 1500L2028 1476L2052 1476L2076 1476L2100 1476L2124 1476L2148 1476L2172 1500L2196 1500L2220 1500L2244 1500L2268 1500L2292 1500L2316 1500M156 1236L180 1236M1260 1500L1284 1500L1308 1500M444 1284L468 1308L492 1308M1044 1428L1068 1428M1980 1500L2004 1476M-12 1140L12 1164L36 1188L60 1188L84 1212L108 1212L132 1212L156 1236L180 1260L204 1260L228 1260L252 1260L276 1260L300 1260L324 1260L348 1260L372 1284L396 1284L420 1284L444 1284L468 1284L492 1284L516 1284L540 1284L564 1284L588 1284L612 1284L636 1308L660 1332L684 1332L708 1332L732 1332L756 1332L780 1332L804 1356L828 1356L852 1356L876 1380L900 1404L924 1404L948 1404L972 1404L996 1404L1020 1404L1044 1428L1068 1452L1092 1452L1116 1452L1140 1452L1164 1452L1188 1476L1212 1500L1236 1500L1260 1500L1284 1524L1308 1524L1332 1524L1356 1524L1380 1524L1404 1524L1428 1524L1452 1524L1476 1524L1500 1524L1524 1524L1548 1524L1572 1524L1596 1524L1620 1524L1644 1524L1668 1524L1692 1524L1716 1524L1740 1524L1764 1524L1788 1524L1812 1524L1836 1524L1860 1500L1884 1500L1908 1500L1932 1500L1956 1500L1980 1500L2004 1500L2028 1500L2052 1500L2076 1500L2100 1500L2124 1500L2148 1500" stroke="rgba(247, 119, 14, 1)" stroke-width="4"></path><path d="M2142 1500 a6 6 0 1 0 12 0 a6 6 0 1 0 -12 0zM1470 1500 a6 6 0 1 0 12 0 a6 6 0 1 0 -12 0zM606 1308 a6 6 0 1 0 12 0 a6 6 0 1 0 -12 0zM1350 1500 a6 6 0 1 0 12 0 a6 6 0 1 0 -12 0zM534 1308 a6 6 0 1 0 12 0 a6 6 0 1 0 -12 0zM222 1236 a6 6 0 1 0 12 0 a6 6 0 1 0 -12 0zM1254 1476 a6 6 0 1 0 12 0 a6 6 0 1 0 -12 0zM2358 1476 a6 6 0 1 0 12 0 a6 6 0 1 0 -12 0zM198 1236 a6 6 0 1 0 12 0 a6 6 0 1 0 -12 0zM1830 1500 a6 6 0 1 0 12 0 a6 6 0 1 0 -12 0zM366 1260 a6 6 0 1 0 12 0 a6 6 0 1 0 -12 0zM2238 1524 a6 6 0 1 0 12 0 a6 6 0 1 0 -12 0zM1758 1500 a6 6 0 1 0 12 0 a6 6 0 1 0 -12 0zM1230 1476 a6 6 0 1 0 12 0 a6 6 0 1 0 -12 0zM1230 1452 a6 6 0 1 0 12 0 a6 6 0 1 0 -12 0zM150 1212 a6 6 0 1 0 12 0 a6 6 0 1 0 -12 0zM1206 1476 a6 6 0 1 0 12 0 a6 6 0 1 0 -12 0zM2310 1500 a6 6 0 1 0 12 0 a6 6 0 1 0 -12 0zM174 1236 a6 6 0 1 0 12 0 a6 6 0 1 0 -12 0zM1302 1500 a6 6 0 1 0 12 0 a6 6 0 1 0 -12 0zM486 1308 a6 6 0 1 0 12 0 a6 6 0 1 0 -12 0zM1062 1428 a6 6 0 1 0 12 0 a6 6 0 1 0 -12 0zM1998 1476 a6 6 0 1 0 12 0 a6 6 0 1 0 -12 0z" fill="rgba(247, 119, 14, 1)"></path><path d="M468 276L492 276L516 276M324 324L348 324M420 300L444 300M-12 420L12 420L36 396L60 372L84 372L108 372L132 348L156 348L180 348L204 348L228 324L252 324L276 324L300 324L324 324L348 300L372 300L396 300L420 300L444 276L468 276L492 300" stroke="rgba(247, 119, 14, 1)" stroke-width="4"></path><path d="M486 300 a6 6 0 1 0 12 0 a6 6 0 1 0 -12 0zM510 276 a6 6 0 1 0 12 0 a6 6 0 1 0 -12 0zM342 324 a6 6 0 1 0 12 0 a6 6 0 1 0 -12 0zM438 300 a6 6 0 1 0 12 0 a6 6 0 1 0 -12 0z" fill="rgba(247, 119, 14, 1)"></path><path d="M36 1212L60 1236M948 1428L972 1452M660 1356L684 1380L708 1380L732 1380L756 1380L780 1380L804 1404L828 1404L852 1404L876 1428L900 1452M516 1332L540 1356L564 1356L588 1356M396 1308L420 1332L444 1356L468 1356L492 1356M1092 1476L1116 1500L1140 1500L1164 1500M324 1284L348 1308L372 1332L396 1332L420 1356L444 1380L468 1380L492 1380L516 1380M996 1428L1020 1452L1044 1476L1068 1500L1092 1500L1116 1524M180 1284L204 1308L228 1308L252 1308L276 1308M300 1284L324 1308L348 1332M420 1308L444 1308M84 1236L108 1236L132 1236M132 1260L156 1284L180 1308L204 1332L228 1332L252 1332L276 1332M-12 1164L12 1188L36 1212L60 1212L84 1236L108 1260L132 1260L156 1260L180 1284L204 1284L228 1284L252 1284L276 1284L300 1284L324 1284L348 1284L372 1308L396 1308L420 1308L444 1332L468 1332L492 1332L516 1332L540 1332L564 1332L588 1332L612 1332L636 1332L660 1356L684 1356L708 1356L732 1356L756 1356L780 1356L804 1380L828 1380L852 1380L876 1404L900 1428L924 1428L948 1428L972 1428L996 1428L1020 1428L1044 1452L1068 1476L1092 1476L1116 1476L1140 1476L1164 1476L1188 1500L1212 1524L1236 1524L1260 1524" stroke="rgba(247, 119, 14, 0.52)" stroke-width="4"></path><path d="M1254 1524 a6 6 0 1 0 12 0 a6 6 0 1 0 -12 0zM54 1236 a6 6 0 1 0 12 0 a6 6 0 1 0 -12 0zM966 1452 a6 6 0 1 0 12 0 a6 6 0 1 0 -12 0zM894 1452 a6 6 0 1 0 12 0 a6 6 0 1 0 -12 0zM582 1356 a6 6 0 1 0 12 0 a6 6 0 1 0 -12 0zM486 1356 a6 6 0 1 0 12 0 a6 6 0 1 0 -12 0zM1158 1500 a6 6 0 1 0 12 0 a6 6 0 1 0 -12 0zM510 1380 a6 6 0 1 0 12 0 a6 6 0 1 0 -12 0zM1110 1524 a6 6 0 1 0 12 0 a6 6 0 1 0 -12 0zM270 1308 a6 6 0 1 0 12 0 a6 6 0 1 0 -12 0zM342 1332 a6 6 0 1 0 12 0 a6 6 0 1 0 -12 0zM438 1308 a6 6 0 1 0 12 0 a6 6 0 1 0 -12 0zM126 1236 a6 6 0 1 0 12 0 a6 6 0 1 0 -12 0zM270 1332 a6 6 0 1 0 12 0 a6 6 0 1 0 -12 0z" fill="rgba(247, 119, 14, 0.52)"></path><path d="M228 300L252 276L276 276L300 252L324 252L348 252L372 252L396 252L420 252L444 228L468 228L492 228L516 228L540 228L564 228L588 228L612 228L636 228L660 228L684 228L708 204L732 180L756 180L780 180L804 180L828 156L852 156L876 132L900 132L924 132L948 132M732 228L756 204L780 204L804 204L828 204L852 204L876 204L900 204L924 204L948 204L972 204L996 180L1020 156L1044 156L1068 156L1092 132L1116 132L1140 132L1164 132L1188 132L1212 132M60 348L84 324L108 324L132 300M1476 156L1500 132L1524 108L1548 84L1572 84L1596 84L1620 60L1644 60L1668 60L1692 60L1716 84M1500 156L1524 180L1548 180L1572 180L1596 204L1620 204L1644 204L1668 204L1692 228L1716 252M972 228L996 228M1380 180L1404 180L1428 204L1452 204L1476 180L1500 180L1524 204L1548 204L1572 204L1596 228L1620 228L1644 228L1668 228L1692 252M1164 204L1188 204L1212 204M1236 180L1260 156M1092 204L1116 180L1140 180L1164 180M1308 180L1332 156L1356 156L1380 132L1404 132L1428 132L1452 132L1476 132L1500 108L1524 84L1548 60L1572 60L1596 60M1020 204L1044 180L1068 180L1092 156L1116 156L1140 156L1164 156L1188 156L1212 156L1236 156L1260 132M156 324L180 300L204 300L228 276L252 252L276 252M1548 156L1572 132L1596 132L1620 132L1644 132L1668 132L1692 132L1716 132L1740 132L1764 132L1788 132L1812 132L1836 132M1596 156L1620 180L1644 180L1668 180L1692 180L1716 180L1740 180L1764 180L1788 180M300 300L324 300M1524 156L1548 132L1572 108L1596 108L1620 108L1644 108L1668 108L1692 108L1716 108L1740 108L1764 108L1788 108L1812 108L1836 108L1860 108L1884 108L1908 108L1932 108L1956 108L1980 108L2004 108L2028 108L2052 108L2076 108L2100 108L2124 108L2148 108L2172 108L2196 108M-12 396L12 396L36 372L60 348L84 348L108 348L132 324L156 324L180 324L204 324L228 300L252 300L276 300L300 300L324 276L348 276L372 276L396 276L420 276L444 252L468 252L492 252L516 252L540 252L564 252L588 252L612 252L636 252L660 252L684 252L708 228L732 228L756 228L780 228L804 228L828 228L852 228L876 228L900 228L924 228L948 228L972 228L996 204L1020 204L1044 204L1068 204L1092 204L1116 204L1140 204L1164 204L1188 180L1212 180L1236 180L1260 180L1284 180L1308 180L1332 180L1356 180L1380 180L1404 156L1428 156L1452 156L1476 156L1500 156L1524 156L1548 156L1572 156L1596 156L1620 156L1644 156" stroke="rgba(247, 119, 14, 0.24)" stroke-width="4"></path><path d="M1638 156 a6 6 0 1 0 12 0 a6 6 0 1 0 -12 0zM942 132 a6 6 0 1 0 12 0 a6 6 0 1 0 -12 0zM1206 132 a6 6 0 1 0 12 0 a6 6 0 1 0 -12 0zM126 300 a6 6 0 1 0 12 0 a6 6 0 1 0 -12 0zM1710 84 a6 6 0 1 0 12 0 a6 6 0 1 0 -12 0zM1710 252 a6 6 0 1 0 12 0 a6 6 0 1 0 -12 0zM990 228 a6 6 0 1 0 12 0 a6 6 0 1 0 -12 0zM1686 252 a6 6 0 1 0 12 0 a6 6 0 1 0 -12 0zM1206 204 a6 6 0 1 0 12 0 a6 6 0 1 0 -12 0zM1254 156 a6 6 0 1 0 12 0 a6 6 0 1 0 -12 0zM1158 180 a6 6 0 1 0 12 0 a6 6 0 1 0 -12 0zM1590 60 a6 6 0 1 0 12 0 a6 6 0 1 0 -12 0zM1254 132 a6 6 0 1 0 12 0 a6 6 0 1 0 -12 0zM270 252 a6 6 0 1 0 12 0 a6 6 0 1 0 -12 0zM1830 132 a6 6 0 1 0 12 0 a6 6 0 1 0 -12 0zM1782 180 a6 6 0 1 0 12 0 a6 6 0 1 0 -12 0zM318 300 a6 6 0 1 0 12 0 a6 6 0 1 0 -12 0zM2190 108 a6 6 0 1 0 12 0 a6 6 0 1 0 -12 0z" fill="rgba(247, 119, 14, 0.24)"></path></g></g><defs><mask id="SvgjsMask1350"><rect width="2440" height="1560" fill="#ffffff"></rect></mask><mask id="SvgjsMask1351"><rect width="2440" height="1560" fill="white"></rect><path d="M1377 684 a3 3 0 1 0 6 0 a3 3 0 1 0 -6 0zM273 756 a3 3 0 1 0 6 0 a3 3 0 1 0 -6 0zM825 708 a3 3 0 1 0 6 0 a3 3 0 1 0 -6 0zM1209 780 a3 3 0 1 0 6 0 a3 3 0 1 0 -6 0zM1305 708 a3 3 0 1 0 6 0 a3 3 0 1 0 -6 0zM153 780 a3 3 0 1 0 6 0 a3 3 0 1 0 -6 0zM273 780 a3 3 0 1 0 6 0 a3 3 0 1 0 -6 0zM129 780 a3 3 0 1 0 6 0 a3 3 0 1 0 -6 0zM561 708 a3 3 0 1 0 6 0 a3 3 0 1 0 -6 0zM1137 708 a3 3 0 1 0 6 0 a3 3 0 1 0 -6 0zM225 780 a3 3 0 1 0 6 0 a3 3 0 1 0 -6 0zM513 780 a3 3 0 1 0 6 0 a3 3 0 1 0 -6 0zM1257 804 a3 3 0 1 0 6 0 a3 3 0 1 0 -6 0zM1521 708 a3 3 0 1 0 6 0 a3 3 0 1 0 -6 0zM465 780 a3 3 0 1 0 6 0 a3 3 0 1 0 -6 0z" fill="black"></path><path d="M1065 780 a3 3 0 1 0 6 0 a3 3 0 1 0 -6 0zM729 804 a3 3 0 1 0 6 0 a3 3 0 1 0 -6 0zM441 780 a3 3 0 1 0 6 0 a3 3 0 1 0 -6 0zM897 852 a3 3 0 1 0 6 0 a3 3 0 1 0 -6 0zM249 828 a3 3 0 1 0 6 0 a3 3 0 1 0 -6 0zM585 804 a3 3 0 1 0 6 0 a3 3 0 1 0 -6 0zM225 828 a3 3 0 1 0 6 0 a3 3 0 1 0 -6 0zM1065 804 a3 3 0 1 0 6 0 a3 3 0 1 0 -6 0zM561 780 a3 3 0 1 0 6 0 a3 3 0 1 0 -6 0zM1065 756 a3 3 0 1 0 6 0 a3 3 0 1 0 -6 0zM81 828 a3 3 0 1 0 6 0 a3 3 0 1 0 -6 0zM57 828 a3 3 0 1 0 6 0 a3 3 0 1 0 -6 0z" fill="black"></path><path d="M1641 636 a3 3 0 1 0 6 0 a3 3 0 1 0 -6 0zM777 660 a3 3 0 1 0 6 0 a3 3 0 1 0 -6 0zM1377 636 a3 3 0 1 0 6 0 a3 3 0 1 0 -6 0zM1737 612 a3 3 0 1 0 6 0 a3 3 0 1 0 -6 0zM609 660 a3 3 0 1 0 6 0 a3 3 0 1 0 -6 0zM1425 588 a3 3 0 1 0 6 0 a3 3 0 1 0 -6 0zM537 708 a3 3 0 1 0 6 0 a3 3 0 1 0 -6 0zM2121 636 a3 3 0 1 0 6 0 a3 3 0 1 0 -6 0zM561 660 a3 3 0 1 0 6 0 a3 3 0 1 0 -6 0zM537 660 a3 3 0 1 0 6 0 a3 3 0 1 0 -6 0zM513 732 a3 3 0 1 0 6 0 a3 3 0 1 0 -6 0zM753 708 a3 3 0 1 0 6 0 a3 3 0 1 0 -6 0zM945 660 a3 3 0 1 0 6 0 a3 3 0 1 0 -6 0zM897 708 a3 3 0 1 0 6 0 a3 3 0 1 0 -6 0zM681 660 a3 3 0 1 0 6 0 a3 3 0 1 0 -6 0zM1185 636 a3 3 0 1 0 6 0 a3 3 0 1 0 -6 0zM1473 684 a3 3 0 1 0 6 0 a3 3 0 1 0 -6 0zM1089 636 a3 3 0 1 0 6 0 a3 3 0 1 0 -6 0z" fill="black"></path><path d="M9 828 a3 3 0 1 0 6 0 a3 3 0 1 0 -6 0z" fill="black"></path><path d="M753 636 a3 3 0 1 0 6 0 a3 3 0 1 0 -6 0zM33 732 a3 3 0 1 0 6 0 a3 3 0 1 0 -6 0zM513 660 a3 3 0 1 0 6 0 a3 3 0 1 0 -6 0z" fill="black"></path><path d="M273 828 a3 3 0 1 0 6 0 a3 3 0 1 0 -6 0zM105 876 a3 3 0 1 0 6 0 a3 3 0 1 0 -6 0zM201 876 a3 3 0 1 0 6 0 a3 3 0 1 0 -6 0zM57 852 a3 3 0 1 0 6 0 a3 3 0 1 0 -6 0z" fill="black"></path><path d="M2385 420 a3 3 0 1 0 6 0 a3 3 0 1 0 -6 0zM1833 540 a3 3 0 1 0 6 0 a3 3 0 1 0 -6 0zM2385 468 a3 3 0 1 0 6 0 a3 3 0 1 0 -6 0zM2385 396 a3 3 0 1 0 6 0 a3 3 0 1 0 -6 0zM1353 588 a3 3 0 1 0 6 0 a3 3 0 1 0 -6 0zM2385 516 a3 3 0 1 0 6 0 a3 3 0 1 0 -6 0zM2385 444 a3 3 0 1 0 6 0 a3 3 0 1 0 -6 0zM825 588 a3 3 0 1 0 6 0 a3 3 0 1 0 -6 0zM2241 372 a3 3 0 1 0 6 0 a3 3 0 1 0 -6 0zM1017 636 a3 3 0 1 0 6 0 a3 3 0 1 0 -6 0zM225 684 a3 3 0 1 0 6 0 a3 3 0 1 0 -6 0zM1329 588 a3 3 0 1 0 6 0 a3 3 0 1 0 -6 0zM2313 468 a3 3 0 1 0 6 0 a3 3 0 1 0 -6 0zM1905 588 a3 3 0 1 0 6 0 a3 3 0 1 0 -6 0zM1497 540 a3 3 0 1 0 6 0 a3 3 0 1 0 -6 0zM1905 612 a3 3 0 1 0 6 0 a3 3 0 1 0 -6 0zM873 636 a3 3 0 1 0 6 0 a3 3 0 1 0 -6 0zM1257 588 a3 3 0 1 0 6 0 a3 3 0 1 0 -6 0zM1905 540 a3 3 0 1 0 6 0 a3 3 0 1 0 -6 0zM681 588 a3 3 0 1 0 6 0 a3 3 0 1 0 -6 0zM2121 492 a3 3 0 1 0 6 0 a3 3 0 1 0 -6 0zM1665 564 a3 3 0 1 0 6 0 a3 3 0 1 0 -6 0zM1641 564 a3 3 0 1 0 6 0 a3 3 0 1 0 -6 0zM2097 444 a3 3 0 1 0 6 0 a3 3 0 1 0 -6 0zM2241 348 a3 3 0 1 0 6 0 a3 3 0 1 0 -6 0zM1449 516 a3 3 0 1 0 6 0 a3 3 0 1 0 -6 0z" fill="black"></path><path d="M537 924 a3 3 0 1 0 6 0 a3 3 0 1 0 -6 0zM393 924 a3 3 0 1 0 6 0 a3 3 0 1 0 -6 0zM201 924 a3 3 0 1 0 6 0 a3 3 0 1 0 -6 0zM585 900 a3 3 0 1 0 6 0 a3 3 0 1 0 -6 0zM393 852 a3 3 0 1 0 6 0 a3 3 0 1 0 -6 0zM465 876 a3 3 0 1 0 6 0 a3 3 0 1 0 -6 0z" fill="black"></path><path d="M729 564 a3 3 0 1 0 6 0 a3 3 0 1 0 -6 0zM177 636 a3 3 0 1 0 6 0 a3 3 0 1 0 -6 0zM633 564 a3 3 0 1 0 6 0 a3 3 0 1 0 -6 0zM321 612 a3 3 0 1 0 6 0 a3 3 0 1 0 -6 0zM297 588 a3 3 0 1 0 6 0 a3 3 0 1 0 -6 0zM249 588 a3 3 0 1 0 6 0 a3 3 0 1 0 -6 0zM153 636 a3 3 0 1 0 6 0 a3 3 0 1 0 -6 0zM657 588 a3 3 0 1 0 6 0 a3 3 0 1 0 -6 0z" fill="black"></path><path d="M513 948 a3 3 0 1 0 6 0 a3 3 0 1 0 -6 0zM321 948 a3 3 0 1 0 6 0 a3 3 0 1 0 -6 0zM297 948 a3 3 0 1 0 6 0 a3 3 0 1 0 -6 0zM609 972 a3 3 0 1 0 6 0 a3 3 0 1 0 -6 0zM369 924 a3 3 0 1 0 6 0 a3 3 0 1 0 -6 0zM129 924 a3 3 0 1 0 6 0 a3 3 0 1 0 -6 0z" fill="black"></path><path d="M1545 492 a3 3 0 1 0 6 0 a3 3 0 1 0 -6 0zM225 588 a3 3 0 1 0 6 0 a3 3 0 1 0 -6 0zM969 564 a3 3 0 1 0 6 0 a3 3 0 1 0 -6 0zM1377 540 a3 3 0 1 0 6 0 a3 3 0 1 0 -6 0zM1785 492 a3 3 0 1 0 6 0 a3 3 0 1 0 -6 0zM489 564 a3 3 0 1 0 6 0 a3 3 0 1 0 -6 0zM873 540 a3 3 0 1 0 6 0 a3 3 0 1 0 -6 0zM1185 564 a3 3 0 1 0 6 0 a3 3 0 1 0 -6 0zM945 540 a3 3 0 1 0 6 0 a3 3 0 1 0 -6 0zM705 516 a3 3 0 1 0 6 0 a3 3 0 1 0 -6 0zM849 564 a3 3 0 1 0 6 0 a3 3 0 1 0 -6 0zM657 516 a3 3 0 1 0 6 0 a3 3 0 1 0 -6 0zM1713 516 a3 3 0 1 0 6 0 a3 3 0 1 0 -6 0zM1401 516 a3 3 0 1 0 6 0 a3 3 0 1 0 -6 0zM1377 468 a3 3 0 1 0 6 0 a3 3 0 1 0 -6 0zM1545 540 a3 3 0 1 0 6 0 a3 3 0 1 0 -6 0zM129 636 a3 3 0 1 0 6 0 a3 3 0 1 0 -6 0z" fill="black"></path><path d="M825 996 a3 3 0 1 0 6 0 a3 3 0 1 0 -6 0zM489 972 a3 3 0 1 0 6 0 a3 3 0 1 0 -6 0zM441 948 a3 3 0 1 0 6 0 a3 3 0 1 0 -6 0zM393 996 a3 3 0 1 0 6 0 a3 3 0 1 0 -6 0zM729 972 a3 3 0 1 0 6 0 a3 3 0 1 0 -6 0zM465 972 a3 3 0 1 0 6 0 a3 3 0 1 0 -6 0zM777 972 a3 3 0 1 0 6 0 a3 3 0 1 0 -6 0zM993 996 a3 3 0 1 0 6 0 a3 3 0 1 0 -6 0zM729 948 a3 3 0 1 0 6 0 a3 3 0 1 0 -6 0zM657 972 a3 3 0 1 0 6 0 a3 3 0 1 0 -6 0z" fill="black"></path><path d="M1257 468 a3 3 0 1 0 6 0 a3 3 0 1 0 -6 0zM1137 540 a3 3 0 1 0 6 0 a3 3 0 1 0 -6 0zM105 612 a3 3 0 1 0 6 0 a3 3 0 1 0 -6 0zM609 516 a3 3 0 1 0 6 0 a3 3 0 1 0 -6 0zM1065 468 a3 3 0 1 0 6 0 a3 3 0 1 0 -6 0zM1017 468 a3 3 0 1 0 6 0 a3 3 0 1 0 -6 0zM1017 540 a3 3 0 1 0 6 0 a3 3 0 1 0 -6 0zM1305 468 a3 3 0 1 0 6 0 a3 3 0 1 0 -6 0zM1257 516 a3 3 0 1 0 6 0 a3 3 0 1 0 -6 0zM1233 540 a3 3 0 1 0 6 0 a3 3 0 1 0 -6 0zM1185 468 a3 3 0 1 0 6 0 a3 3 0 1 0 -6 0zM873 492 a3 3 0 1 0 6 0 a3 3 0 1 0 -6 0zM993 444 a3 3 0 1 0 6 0 a3 3 0 1 0 -6 0zM1089 516 a3 3 0 1 0 6 0 a3 3 0 1 0 -6 0z" fill="black"></path><path d="M2337 1020 a3 3 0 1 0 6 0 a3 3 0 1 0 -6 0zM2385 1020 a3 3 0 1 0 6 0 a3 3 0 1 0 -6 0zM2337 972 a3 3 0 1 0 6 0 a3 3 0 1 0 -6 0zM825 1044 a3 3 0 1 0 6 0 a3 3 0 1 0 -6 0zM2073 1044 a3 3 0 1 0 6 0 a3 3 0 1 0 -6 0zM681 1044 a3 3 0 1 0 6 0 a3 3 0 1 0 -6 0zM249 996 a3 3 0 1 0 6 0 a3 3 0 1 0 -6 0zM1521 996 a3 3 0 1 0 6 0 a3 3 0 1 0 -6 0zM2025 1044 a3 3 0 1 0 6 0 a3 3 0 1 0 -6 0zM2385 948 a3 3 0 1 0 6 0 a3 3 0 1 0 -6 0zM1785 1020 a3 3 0 1 0 6 0 a3 3 0 1 0 -6 0zM1497 996 a3 3 0 1 0 6 0 a3 3 0 1 0 -6 0zM1977 1020 a3 3 0 1 0 6 0 a3 3 0 1 0 -6 0zM1089 1020 a3 3 0 1 0 6 0 a3 3 0 1 0 -6 0zM1665 1020 a3 3 0 1 0 6 0 a3 3 0 1 0 -6 0zM897 996 a3 3 0 1 0 6 0 a3 3 0 1 0 -6 0zM993 1116 a3 3 0 1 0 6 0 a3 3 0 1 0 -6 0zM1473 1068 a3 3 0 1 0 6 0 a3 3 0 1 0 -6 0zM1257 924 a3 3 0 1 0 6 0 a3 3 0 1 0 -6 0zM1185 1092 a3 3 0 1 0 6 0 a3 3 0 1 0 -6 0zM1473 924 a3 3 0 1 0 6 0 a3 3 0 1 0 -6 0zM1113 1092 a3 3 0 1 0 6 0 a3 3 0 1 0 -6 0zM1329 924 a3 3 0 1 0 6 0 a3 3 0 1 0 -6 0zM2385 996 a3 3 0 1 0 6 0 a3 3 0 1 0 -6 0zM1641 996 a3 3 0 1 0 6 0 a3 3 0 1 0 -6 0z" fill="black"></path><path d="M1833 444 a3 3 0 1 0 6 0 a3 3 0 1 0 -6 0zM1617 372 a3 3 0 1 0 6 0 a3 3 0 1 0 -6 0zM1449 396 a3 3 0 1 0 6 0 a3 3 0 1 0 -6 0zM1161 420 a3 3 0 1 0 6 0 a3 3 0 1 0 -6 0zM561 492 a3 3 0 1 0 6 0 a3 3 0 1 0 -6 0zM945 444 a3 3 0 1 0 6 0 a3 3 0 1 0 -6 0zM1905 396 a3 3 0 1 0 6 0 a3 3 0 1 0 -6 0zM2265 324 a3 3 0 1 0 6 0 a3 3 0 1 0 -6 0zM1689 420 a3 3 0 1 0 6 0 a3 3 0 1 0 -6 0zM849 468 a3 3 0 1 0 6 0 a3 3 0 1 0 -6 0zM1713 396 a3 3 0 1 0 6 0 a3 3 0 1 0 -6 0zM633 444 a3 3 0 1 0 6 0 a3 3 0 1 0 -6 0zM1521 444 a3 3 0 1 0 6 0 a3 3 0 1 0 -6 0zM1281 420 a3 3 0 1 0 6 0 a3 3 0 1 0 -6 0zM897 444 a3 3 0 1 0 6 0 a3 3 0 1 0 -6 0zM1065 420 a3 3 0 1 0 6 0 a3 3 0 1 0 -6 0zM2049 420 a3 3 0 1 0 6 0 a3 3 0 1 0 -6 0zM417 492 a3 3 0 1 0 6 0 a3 3 0 1 0 -6 0zM1737 372 a3 3 0 1 0 6 0 a3 3 0 1 0 -6 0zM1497 444 a3 3 0 1 0 6 0 a3 3 0 1 0 -6 0z" fill="black"></path><path d="M513 1092 a3 3 0 1 0 6 0 a3 3 0 1 0 -6 0zM513 1068 a3 3 0 1 0 6 0 a3 3 0 1 0 -6 0zM345 1068 a3 3 0 1 0 6 0 a3 3 0 1 0 -6 0zM393 1044 a3 3 0 1 0 6 0 a3 3 0 1 0 -6 0zM393 1068 a3 3 0 1 0 6 0 a3 3 0 1 0 -6 0z" fill="black"></path><path d="M681 420 a3 3 0 1 0 6 0 a3 3 0 1 0 -6 0zM441 444 a3 3 0 1 0 6 0 a3 3 0 1 0 -6 0zM369 492 a3 3 0 1 0 6 0 a3 3 0 1 0 -6 0zM393 444 a3 3 0 1 0 6 0 a3 3 0 1 0 -6 0zM585 444 a3 3 0 1 0 6 0 a3 3 0 1 0 -6 0zM561 444 a3 3 0 1 0 6 0 a3 3 0 1 0 -6 0zM345 492 a3 3 0 1 0 6 0 a3 3 0 1 0 -6 0z" fill="black"></path><path d="M1305 1116 a3 3 0 1 0 6 0 a3 3 0 1 0 -6 0zM825 1092 a3 3 0 1 0 6 0 a3 3 0 1 0 -6 0zM1209 1164 a3 3 0 1 0 6 0 a3 3 0 1 0 -6 0zM105 1044 a3 3 0 1 0 6 0 a3 3 0 1 0 -6 0zM801 1140 a3 3 0 1 0 6 0 a3 3 0 1 0 -6 0zM897 1140 a3 3 0 1 0 6 0 a3 3 0 1 0 -6 0zM1617 1092 a3 3 0 1 0 6 0 a3 3 0 1 0 -6 0zM1065 1092 a3 3 0 1 0 6 0 a3 3 0 1 0 -6 0zM1017 1164 a3 3 0 1 0 6 0 a3 3 0 1 0 -6 0zM705 1164 a3 3 0 1 0 6 0 a3 3 0 1 0 -6 0zM1041 1092 a3 3 0 1 0 6 0 a3 3 0 1 0 -6 0zM777 1140 a3 3 0 1 0 6 0 a3 3 0 1 0 -6 0zM969 1116 a3 3 0 1 0 6 0 a3 3 0 1 0 -6 0zM1257 1092 a3 3 0 1 0 6 0 a3 3 0 1 0 -6 0zM1497 1188 a3 3 0 1 0 6 0 a3 3 0 1 0 -6 0z" fill="black"></path><path d="M345 444 a3 3 0 1 0 6 0 a3 3 0 1 0 -6 0zM81 516 a3 3 0 1 0 6 0 a3 3 0 1 0 -6 0z" fill="black"></path><path d="M1521 1260 a3 3 0 1 0 6 0 a3 3 0 1 0 -6 0zM705 1212 a3 3 0 1 0 6 0 a3 3 0 1 0 -6 0zM1065 1212 a3 3 0 1 0 6 0 a3 3 0 1 0 -6 0zM1377 1284 a3 3 0 1 0 6 0 a3 3 0 1 0 -6 0zM1329 1284 a3 3 0 1 0 6 0 a3 3 0 1 0 -6 0zM1161 1236 a3 3 0 1 0 6 0 a3 3 0 1 0 -6 0zM1569 1236 a3 3 0 1 0 6 0 a3 3 0 1 0 -6 0zM1401 1236 a3 3 0 1 0 6 0 a3 3 0 1 0 -6 0zM1281 1236 a3 3 0 1 0 6 0 a3 3 0 1 0 -6 0zM1089 1236 a3 3 0 1 0 6 0 a3 3 0 1 0 -6 0zM1353 1236 a3 3 0 1 0 6 0 a3 3 0 1 0 -6 0zM1473 1236 a3 3 0 1 0 6 0 a3 3 0 1 0 -6 0zM633 1164 a3 3 0 1 0 6 0 a3 3 0 1 0 -6 0zM1113 1164 a3 3 0 1 0 6 0 a3 3 0 1 0 -6 0zM1257 1284 a3 3 0 1 0 6 0 a3 3 0 1 0 -6 0zM921 1188 a3 3 0 1 0 6 0 a3 3 0 1 0 -6 0zM849 1188 a3 3 0 1 0 6 0 a3 3 0 1 0 -6 0z" fill="black"></path><path d="M177 492 a3 3 0 1 0 6 0 a3 3 0 1 0 -6 0zM57 516 a3 3 0 1 0 6 0 a3 3 0 1 0 -6 0z" fill="black"></path><path d="M1713 1284 a3 3 0 1 0 6 0 a3 3 0 1 0 -6 0zM1137 1332 a3 3 0 1 0 6 0 a3 3 0 1 0 -6 0zM1545 1308 a3 3 0 1 0 6 0 a3 3 0 1 0 -6 0zM201 1116 a3 3 0 1 0 6 0 a3 3 0 1 0 -6 0zM801 1260 a3 3 0 1 0 6 0 a3 3 0 1 0 -6 0zM2049 1236 a3 3 0 1 0 6 0 a3 3 0 1 0 -6 0zM681 1212 a3 3 0 1 0 6 0 a3 3 0 1 0 -6 0zM993 1260 a3 3 0 1 0 6 0 a3 3 0 1 0 -6 0zM1665 1260 a3 3 0 1 0 6 0 a3 3 0 1 0 -6 0zM1185 1308 a3 3 0 1 0 6 0 a3 3 0 1 0 -6 0zM1377 1332 a3 3 0 1 0 6 0 a3 3 0 1 0 -6 0zM1497 1308 a3 3 0 1 0 6 0 a3 3 0 1 0 -6 0zM1449 1308 a3 3 0 1 0 6 0 a3 3 0 1 0 -6 0zM273 1140 a3 3 0 1 0 6 0 a3 3 0 1 0 -6 0zM489 1164 a3 3 0 1 0 6 0 a3 3 0 1 0 -6 0zM1209 1356 a3 3 0 1 0 6 0 a3 3 0 1 0 -6 0zM1113 1332 a3 3 0 1 0 6 0 a3 3 0 1 0 -6 0zM1401 1308 a3 3 0 1 0 6 0 a3 3 0 1 0 -6 0zM969 1260 a3 3 0 1 0 6 0 a3 3 0 1 0 -6 0z" fill="black"></path><path d="M777 372 a3 3 0 1 0 6 0 a3 3 0 1 0 -6 0zM969 372 a3 3 0 1 0 6 0 a3 3 0 1 0 -6 0zM921 348 a3 3 0 1 0 6 0 a3 3 0 1 0 -6 0zM201 444 a3 3 0 1 0 6 0 a3 3 0 1 0 -6 0zM729 348 a3 3 0 1 0 6 0 a3 3 0 1 0 -6 0zM585 372 a3 3 0 1 0 6 0 a3 3 0 1 0 -6 0zM153 444 a3 3 0 1 0 6 0 a3 3 0 1 0 -6 0z" fill="black"></path><path d="M225 1116 a3 3 0 1 0 6 0 a3 3 0 1 0 -6 0zM153 1140 a3 3 0 1 0 6 0 a3 3 0 1 0 -6 0zM129 1140 a3 3 0 1 0 6 0 a3 3 0 1 0 -6 0zM177 1116 a3 3 0 1 0 6 0 a3 3 0 1 0 -6 0z" fill="black"></path><path d="M465 396 a3 3 0 1 0 6 0 a3 3 0 1 0 -6 0z" fill="black"></path><path d="M1665 1356 a3 3 0 1 0 6 0 a3 3 0 1 0 -6 0zM2025 1308 a3 3 0 1 0 6 0 a3 3 0 1 0 -6 0zM1017 1332 a3 3 0 1 0 6 0 a3 3 0 1 0 -6 0zM81 1140 a3 3 0 1 0 6 0 a3 3 0 1 0 -6 0zM1473 1404 a3 3 0 1 0 6 0 a3 3 0 1 0 -6 0zM249 1140 a3 3 0 1 0 6 0 a3 3 0 1 0 -6 0zM753 1284 a3 3 0 1 0 6 0 a3 3 0 1 0 -6 0zM729 1284 a3 3 0 1 0 6 0 a3 3 0 1 0 -6 0zM585 1236 a3 3 0 1 0 6 0 a3 3 0 1 0 -6 0zM1281 1380 a3 3 0 1 0 6 0 a3 3 0 1 0 -6 0zM1713 1404 a3 3 0 1 0 6 0 a3 3 0 1 0 -6 0zM1185 1356 a3 3 0 1 0 6 0 a3 3 0 1 0 -6 0zM489 1236 a3 3 0 1 0 6 0 a3 3 0 1 0 -6 0zM969 1332 a3 3 0 1 0 6 0 a3 3 0 1 0 -6 0zM1473 1356 a3 3 0 1 0 6 0 a3 3 0 1 0 -6 0zM1281 1404 a3 3 0 1 0 6 0 a3 3 0 1 0 -6 0zM1953 1308 a3 3 0 1 0 6 0 a3 3 0 1 0 -6 0zM1041 1356 a3 3 0 1 0 6 0 a3 3 0 1 0 -6 0z" fill="black"></path><path d="M1953 324 a3 3 0 1 0 6 0 a3 3 0 1 0 -6 0zM1857 276 a3 3 0 1 0 6 0 a3 3 0 1 0 -6 0zM657 348 a3 3 0 1 0 6 0 a3 3 0 1 0 -6 0zM2097 300 a3 3 0 1 0 6 0 a3 3 0 1 0 -6 0zM897 276 a3 3 0 1 0 6 0 a3 3 0 1 0 -6 0zM1617 324 a3 3 0 1 0 6 0 a3 3 0 1 0 -6 0zM801 276 a3 3 0 1 0 6 0 a3 3 0 1 0 -6 0zM321 372 a3 3 0 1 0 6 0 a3 3 0 1 0 -6 0zM1545 348 a3 3 0 1 0 6 0 a3 3 0 1 0 -6 0zM1449 324 a3 3 0 1 0 6 0 a3 3 0 1 0 -6 0zM1545 372 a3 3 0 1 0 6 0 a3 3 0 1 0 -6 0zM1329 348 a3 3 0 1 0 6 0 a3 3 0 1 0 -6 0zM1929 324 a3 3 0 1 0 6 0 a3 3 0 1 0 -6 0zM1353 276 a3 3 0 1 0 6 0 a3 3 0 1 0 -6 0zM633 348 a3 3 0 1 0 6 0 a3 3 0 1 0 -6 0zM1761 300 a3 3 0 1 0 6 0 a3 3 0 1 0 -6 0zM1329 372 a3 3 0 1 0 6 0 a3 3 0 1 0 -6 0zM1185 276 a3 3 0 1 0 6 0 a3 3 0 1 0 -6 0zM1065 372 a3 3 0 1 0 6 0 a3 3 0 1 0 -6 0zM1065 276 a3 3 0 1 0 6 0 a3 3 0 1 0 -6 0zM2049 372 a3 3 0 1 0 6 0 a3 3 0 1 0 -6 0z" fill="black"></path><path d="M1281 1452 a3 3 0 1 0 6 0 a3 3 0 1 0 -6 0zM1161 1428 a3 3 0 1 0 6 0 a3 3 0 1 0 -6 0zM465 1236 a3 3 0 1 0 6 0 a3 3 0 1 0 -6 0zM441 1260 a3 3 0 1 0 6 0 a3 3 0 1 0 -6 0zM321 1212 a3 3 0 1 0 6 0 a3 3 0 1 0 -6 0zM393 1260 a3 3 0 1 0 6 0 a3 3 0 1 0 -6 0zM1473 1476 a3 3 0 1 0 6 0 a3 3 0 1 0 -6 0zM657 1284 a3 3 0 1 0 6 0 a3 3 0 1 0 -6 0zM1209 1428 a3 3 0 1 0 6 0 a3 3 0 1 0 -6 0z" fill="black"></path><path d="M1521 252 a3 3 0 1 0 6 0 a3 3 0 1 0 -6 0zM1545 228 a3 3 0 1 0 6 0 a3 3 0 1 0 -6 0zM1473 204 a3 3 0 1 0 6 0 a3 3 0 1 0 -6 0zM273 372 a3 3 0 1 0 6 0 a3 3 0 1 0 -6 0zM465 324 a3 3 0 1 0 6 0 a3 3 0 1 0 -6 0zM417 324 a3 3 0 1 0 6 0 a3 3 0 1 0 -6 0zM777 276 a3 3 0 1 0 6 0 a3 3 0 1 0 -6 0zM1089 228 a3 3 0 1 0 6 0 a3 3 0 1 0 -6 0zM1017 276 a3 3 0 1 0 6 0 a3 3 0 1 0 -6 0zM1041 228 a3 3 0 1 0 6 0 a3 3 0 1 0 -6 0zM705 276 a3 3 0 1 0 6 0 a3 3 0 1 0 -6 0zM1137 228 a3 3 0 1 0 6 0 a3 3 0 1 0 -6 0zM1329 204 a3 3 0 1 0 6 0 a3 3 0 1 0 -6 0zM945 276 a3 3 0 1 0 6 0 a3 3 0 1 0 -6 0z" fill="black"></path><path d="M2145 1500 a3 3 0 1 0 6 0 a3 3 0 1 0 -6 0zM1473 1500 a3 3 0 1 0 6 0 a3 3 0 1 0 -6 0zM609 1308 a3 3 0 1 0 6 0 a3 3 0 1 0 -6 0zM1353 1500 a3 3 0 1 0 6 0 a3 3 0 1 0 -6 0zM537 1308 a3 3 0 1 0 6 0 a3 3 0 1 0 -6 0zM225 1236 a3 3 0 1 0 6 0 a3 3 0 1 0 -6 0zM1257 1476 a3 3 0 1 0 6 0 a3 3 0 1 0 -6 0zM2361 1476 a3 3 0 1 0 6 0 a3 3 0 1 0 -6 0zM201 1236 a3 3 0 1 0 6 0 a3 3 0 1 0 -6 0zM1833 1500 a3 3 0 1 0 6 0 a3 3 0 1 0 -6 0zM369 1260 a3 3 0 1 0 6 0 a3 3 0 1 0 -6 0zM2241 1524 a3 3 0 1 0 6 0 a3 3 0 1 0 -6 0zM1761 1500 a3 3 0 1 0 6 0 a3 3 0 1 0 -6 0zM1233 1476 a3 3 0 1 0 6 0 a3 3 0 1 0 -6 0zM1233 1452 a3 3 0 1 0 6 0 a3 3 0 1 0 -6 0zM153 1212 a3 3 0 1 0 6 0 a3 3 0 1 0 -6 0zM1209 1476 a3 3 0 1 0 6 0 a3 3 0 1 0 -6 0zM2313 1500 a3 3 0 1 0 6 0 a3 3 0 1 0 -6 0zM177 1236 a3 3 0 1 0 6 0 a3 3 0 1 0 -6 0zM1305 1500 a3 3 0 1 0 6 0 a3 3 0 1 0 -6 0zM489 1308 a3 3 0 1 0 6 0 a3 3 0 1 0 -6 0zM1065 1428 a3 3 0 1 0 6 0 a3 3 0 1 0 -6 0zM2001 1476 a3 3 0 1 0 6 0 a3 3 0 1 0 -6 0z" fill="black"></path><path d="M489 300 a3 3 0 1 0 6 0 a3 3 0 1 0 -6 0zM513 276 a3 3 0 1 0 6 0 a3 3 0 1 0 -6 0zM345 324 a3 3 0 1 0 6 0 a3 3 0 1 0 -6 0zM441 300 a3 3 0 1 0 6 0 a3 3 0 1 0 -6 0z" fill="black"></path><path d="M1257 1524 a3 3 0 1 0 6 0 a3 3 0 1 0 -6 0zM57 1236 a3 3 0 1 0 6 0 a3 3 0 1 0 -6 0zM969 1452 a3 3 0 1 0 6 0 a3 3 0 1 0 -6 0zM897 1452 a3 3 0 1 0 6 0 a3 3 0 1 0 -6 0zM585 1356 a3 3 0 1 0 6 0 a3 3 0 1 0 -6 0zM489 1356 a3 3 0 1 0 6 0 a3 3 0 1 0 -6 0zM1161 1500 a3 3 0 1 0 6 0 a3 3 0 1 0 -6 0zM513 1380 a3 3 0 1 0 6 0 a3 3 0 1 0 -6 0zM1113 1524 a3 3 0 1 0 6 0 a3 3 0 1 0 -6 0zM273 1308 a3 3 0 1 0 6 0 a3 3 0 1 0 -6 0zM345 1332 a3 3 0 1 0 6 0 a3 3 0 1 0 -6 0zM441 1308 a3 3 0 1 0 6 0 a3 3 0 1 0 -6 0zM129 1236 a3 3 0 1 0 6 0 a3 3 0 1 0 -6 0zM273 1332 a3 3 0 1 0 6 0 a3 3 0 1 0 -6 0z" fill="black"></path><path d="M1641 156 a3 3 0 1 0 6 0 a3 3 0 1 0 -6 0zM945 132 a3 3 0 1 0 6 0 a3 3 0 1 0 -6 0zM1209 132 a3 3 0 1 0 6 0 a3 3 0 1 0 -6 0zM129 300 a3 3 0 1 0 6 0 a3 3 0 1 0 -6 0zM1713 84 a3 3 0 1 0 6 0 a3 3 0 1 0 -6 0zM1713 252 a3 3 0 1 0 6 0 a3 3 0 1 0 -6 0zM993 228 a3 3 0 1 0 6 0 a3 3 0 1 0 -6 0zM1689 252 a3 3 0 1 0 6 0 a3 3 0 1 0 -6 0zM1209 204 a3 3 0 1 0 6 0 a3 3 0 1 0 -6 0zM1257 156 a3 3 0 1 0 6 0 a3 3 0 1 0 -6 0zM1161 180 a3 3 0 1 0 6 0 a3 3 0 1 0 -6 0zM1593 60 a3 3 0 1 0 6 0 a3 3 0 1 0 -6 0zM1257 132 a3 3 0 1 0 6 0 a3 3 0 1 0 -6 0zM273 252 a3 3 0 1 0 6 0 a3 3 0 1 0 -6 0zM1833 132 a3 3 0 1 0 6 0 a3 3 0 1 0 -6 0zM1785 180 a3 3 0 1 0 6 0 a3 3 0 1 0 -6 0zM321 300 a3 3 0 1 0 6 0 a3 3 0 1 0 -6 0zM2193 108 a3 3 0 1 0 6 0 a3 3 0 1 0 -6 0z" fill="black"></path></mask></defs></svg>