<svg xmlns="http://www.w3.org/2000/svg" version="1.1" xmlns:xlink="http://www.w3.org/1999/xlink" xmlns:svgjs="http://svgjs.dev/svgjs" width="2440" height="1560" preserveAspectRatio="none" viewBox="0 0 2440 1560"><g mask="url(&quot;#SvgjsMask1268&quot;)" fill="none"><rect width="2440" height="1560" x="0" y="0" fill="rgba(0, 17, 34, 1)"></rect><path d="M -308.4096935052596,676 C -267.61,733.4 -186.01,991.6 -104.40969350525963,963 C -22.81,934.4 17.99,568 99.59030649474037,533 C 181.19,498 221.99,832.8 303.5903064947404,788 C 385.19,743.2 425.99,229 507.5903064947404,309 C 589.19,389 629.99,1152.8 711.5903064947404,1188 C 793.19,1223.2 833.99,472 915.5903064947404,485 C 997.19,498 1037.99,1304.4 1119.5903064947404,1253 C 1201.19,1201.6 1241.99,236 1323.5903064947404,228 C 1405.19,220 1445.99,1120.4 1527.5903064947404,1213 C 1609.19,1305.6 1649.99,652 1731.5903064947404,691 C 1813.19,730 1853.99,1527.8 1935.5903064947404,1408 C 2017.19,1288.2 2057.99,178.6 2139.59030649474,92 C 2221.19,5.4 2283.51,944.8 2343.59030649474,975 C 2403.67,1005.2 2420.72,389.4 2440,243" stroke="rgba(247, 119, 14, 0.31)" stroke-width="2"></path><path d="M -279.3938053351481,20 C -238.59,263.2 -156.99,1117.8 -75.39380533514809,1236 C 6.21,1354.2 47.01,687.8 128.6061946648519,611 C 210.21,534.2 251.01,931 332.6061946648519,852 C 414.21,773 455.01,190.2 536.606194664852,216 C 618.21,241.8 659.01,944.2 740.606194664852,981 C 822.21,1017.8 863.01,300.8 944.606194664852,400 C 1026.21,499.2 1067.01,1443 1148.606194664852,1477 C 1230.21,1511 1271.01,708.6 1352.606194664852,570 C 1434.21,431.4 1475.01,826.2 1556.606194664852,784 C 1638.21,741.8 1679.01,288.8 1760.606194664852,359 C 1842.21,429.2 1883.01,1088.2 1964.606194664852,1135 C 2046.21,1181.8 2087.01,606.8 2168.606194664852,593 C 2250.21,579.2 2318.33,1071.6 2372.606194664852,1066 C 2426.88,1060.4 2426.52,665.2 2440,565" stroke="rgba(247, 119, 14, 1)" stroke-width="2"></path><path d="M -209.02071452232772,1045 C -168.22,884.8 -86.62,194.2 -5.020714522327712,244 C 76.58,293.8 117.38,1328.8 198.97928547767228,1294 C 280.58,1259.2 321.38,92.2 402.9792854776723,70 C 484.58,47.8 525.38,1127.6 606.9792854776723,1183 C 688.58,1238.4 729.38,394 810.9792854776723,347 C 892.58,300 933.38,1007.6 1014.9792854776723,948 C 1096.58,888.4 1137.38,63 1218.9792854776722,49 C 1300.58,35 1341.38,844.8 1422.9792854776722,878 C 1504.58,911.2 1545.38,202.2 1626.9792854776722,215 C 1708.58,227.8 1749.38,905.4 1830.9792854776722,942 C 1912.58,978.6 1953.38,279.4 2034.9792854776722,398 C 2116.58,516.6 2157.38,1469.2 2238.9792854776724,1535 C 2320.58,1600.8 2402.78,810.8 2442.9792854776724,727 C 2483.18,643.2 2440.6,1038.2 2440,1116" stroke="rgba(247, 119, 14, 0.31)" stroke-width="2"></path><path d="M -161.76782744407825,1268 C -120.97,1070.6 -39.37,288.2 42.232172555921736,281 C 123.83,273.8 164.63,1225.8 246.23217255592175,1232 C 327.83,1238.2 368.63,266.4 450.23217255592175,312 C 531.83,357.6 572.63,1447 654.2321725559217,1460 C 735.83,1473 776.63,403.2 858.2321725559217,377 C 939.83,350.8 980.63,1276.8 1062.2321725559218,1329 C 1143.83,1381.2 1184.63,707.8 1266.2321725559218,638 C 1347.83,568.2 1388.63,1013.8 1470.2321725559218,980 C 1551.83,946.2 1592.63,455.2 1674.2321725559218,469 C 1755.83,482.8 1796.63,1125 1878.2321725559218,1049 C 1959.83,973 2000.63,16.2 2082.232172555922,89 C 2163.83,161.8 2204.63,1383.6 2286.232172555922,1413 C 2367.83,1442.4 2459.48,319.2 2490.232172555922,236 C 2520.99,152.8 2450.05,844.8 2440,997" stroke="rgba(247, 119, 14, 1)" stroke-width="2"></path></g><defs><mask id="SvgjsMask1268"><rect width="2440" height="1560" fill="#ffffff"></rect></mask></defs></svg>