<svg xmlns="http://www.w3.org/2000/svg" version="1.1" xmlns:xlink="http://www.w3.org/1999/xlink" xmlns:svgjs="http://svgjs.dev/svgjs" width="2440" height="1560" preserveAspectRatio="none" viewBox="0 0 2440 1560"><g mask="url(&quot;#SvgjsMask1120&quot;)" fill="none"><path d="M2521.333333333333 1560L0 1560 L0 405.07Q214.44 497.51, 122 711.96Q90.03 476.66, 325.3333333333333 444.69Q369.96 367.32, 447.3333333333333 411.95Q469.78 312.4, 569.3333333333333 334.84Q680.29 242.46, 772.6666666666665 353.42Q892.76 351.51, 894.6666666666665 471.61Q1091.65 546.59, 1016.6666666666665 743.57Q973.35 496.92, 1219.9999999999998 453.6Q1271.55 383.15, 1341.9999999999998 434.7Q1355.24 325.94, 1463.9999999999998 339.18Q1581.33 253.18, 1667.333333333333 370.51Q1842.53 342.37, 1870.6666666666663 517.57Q1903.88 347.45, 2073.9999999999995 380.66Q2200.22 303.54, 2277.333333333333 429.76Q2376.89 407.31, 2399.333333333333 506.87Q2527.29 512.83, 2521.333333333333 640.78z" fill="rgba(247, 119, 14, 0.21)"></path><path d="M2643.3333333333335 1560L0 1560 L0 1009.57Q21.95 828.19, 203.33333333333331 850.14Q213.16 737.96, 325.3333333333333 747.79Q396.71 615.83, 528.6666666666666 687.2Q614.01 569.21, 732 654.56Q823.85 624.41, 854 716.26Q972.75 713.01, 976 831.76Q1060.54 794.3, 1098 878.83Q1188.08 765.58, 1301.3333333333333 855.66Q1392.68 743.68, 1504.6666666666665 835.03Q1571.65 698.68, 1707.9999999999998 765.67Q1773.91 628.24, 1911.333333333333 694.15Q1989.22 650.04, 2033.333333333333 727.93Q2207.98 699.24, 2236.6666666666665 873.89Q2412.91 846.8, 2440 1023.04Q2560.46 940.17, 2643.3333333333335 1060.63z" fill="rgba(247, 119, 14, 0.36)"></path><path d="M2602.666666666667 1560L0 1560 L0 1237.8Q34.88 1150.68, 122 1185.56Q184.76 1044.99, 325.3333333333333 1107.75Q361.2 940.29, 528.6666666666666 976.16Q655.53 899.69, 732 1026.56Q820.18 992.74, 854 1080.91Q903.23 1008.14, 976 1057.38Q1055.93 1015.32, 1098 1095.25Q1158.23 952.14, 1301.3333333333333 1012.37Q1388.45 977.49, 1423.3333333333333 1064.61Q1517.74 1037.02, 1545.3333333333333 1131.43Q1675.63 1058.39, 1748.6666666666665 1188.69Q1935.86 1172.55, 1951.9999999999998 1359.74Q1994.62 1280.35, 2074 1322.97Q2068.19 1195.16, 2196 1189.35Q2234.89 1024.91, 2399.3333333333335 1063.8Q2462.75 923.88, 2602.666666666667 987.3z" fill="rgba(247, 119, 14, 0.63)"></path><path d="M2643.3333333333335 1560L0 1560 L0 1425.5Q14.26 1317.76, 122 1332.03Q185.59 1192.29, 325.3333333333333 1255.88Q410.32 1218.87, 447.3333333333333 1303.86Q643.45 1296.64, 650.6666666666666 1492.76Q727.46 1447.55, 772.6666666666666 1524.34Q781.08 1410.76, 894.6666666666666 1419.17Q950.22 1271.39, 1098 1326.95Q1228.69 1254.31, 1301.3333333333333 1385Q1476.91 1438.58, 1423.3333333333333 1614.16Q1405.09 1473.91, 1545.3333333333333 1455.67Q1582.76 1371.1, 1667.3333333333333 1408.53Q1704 1323.2, 1789.3333333333333 1359.87Q1872.98 1240.18, 1992.6666666666665 1323.83Q2080.68 1289.84, 2114.6666666666665 1377.85Q2126.14 1267.32, 2236.6666666666665 1278.8Q2354.47 1193.27, 2440 1311.07Q2596.18 1263.92, 2643.3333333333335 1420.1z" fill="rgba(247, 119, 14, 0.92)"></path></g><defs><mask id="SvgjsMask1120"><rect width="2440" height="1560" fill="#ffffff"></rect></mask></defs></svg>