<svg xmlns="http://www.w3.org/2000/svg" version="1.1" xmlns:xlink="http://www.w3.org/1999/xlink" xmlns:svgjs="http://svgjs.dev/svgjs" width="2440" height="1560" preserveAspectRatio="none" viewBox="0 0 2440 1560"><g mask="url(&quot;#SvgjsMask1008&quot;)" fill="none"><rect width="2440" height="1560" x="0" y="0" fill="rgba(0, 17, 34, 1)"></rect><path d="M162.5 0C281.89 36.34 270.17 116.54 390 118.7C578.92 122.11 586.79 68.16 780 11.14C787.89 8.81 784.02 0.23 792.19 0C979.02 -5.34 981.1 0 1170 0C1365 0 1365 0 1560 0C1696.26 0 1832.53 -65.74 1832.53 0C1832.53 105.63 1699.25 174.1 1560 342.73C1538.23 369.1 1510.48 359.04 1510.48 390C1510.48 486.68 1484.54 583.35 1560 598C1704.3 626.01 1762.64 551.92 1950 475.31C2016.99 447.92 2050.75 454.76 2068.7 390C2116.63 217.11 2000.13 117.34 2081.76 0C2135.78 -77.66 2210.88 0 2340 0C2496.64 0 2529.11 -51.38 2653.28 0C2724.11 29.31 2713.17 75.83 2730 161.38C2751.53 270.83 2730 275.69 2730 390C2730 585 2730 585 2730 780C2730 926.25 2813.09 1022.05 2730 1072.5C2618.09 1140.45 2535.71 1038.13 2340 1016.79C2145.71 995.6 2114.05 938.41 1950 987.45C1857.77 1015.02 1856.29 1067.1 1827.43 1170C1776 1353.38 1873.75 1437.01 1789.41 1560C1740.03 1632.01 1674.7 1560 1560 1560C1365 1560 1365 1560 1170 1560C975 1560 975 1560 780 1560C634.4 1560 618.36 1596.2 488.8 1560C423.36 1541.71 440.94 1451.03 390 1451.03C336.24 1451.03 349.05 1540.54 279.4 1560C154.05 1595.02 62.34 1637.36 0 1560C-77.36 1464.02 -18.1 1379.26 0 1213.33C3.17 1184.26 31.53 1197.91 42.55 1170C117.06 981.25 184.94 951.56 171.05 780C163.67 688.85 39.47 734.57 0 644.58C-46.06 539.57 0 517.29 0 390C0 195 -57.35 137.65 0 0C23.9 -57.35 86.89 -23.01 162.5 0" stroke="rgba(247, 119, 14, 0.88)" stroke-width="2"></path><path d="M780 650C694.77 667.48 656.2 696.29 644.69 780C620.45 956.29 654.07 987.35 708.5 1170C721.72 1214.36 734.5 1230.07 780 1234.03C965.25 1250.15 981.05 1237.67 1170 1210.15C1200.87 1205.65 1201.8 1196.24 1219.64 1170C1348.05 981.17 1477.29 928.28 1462.5 780C1452.47 679.4 1321.45 701.09 1170 672.24C980.2 636.09 957.43 613.6 780 650" stroke="rgba(247, 119, 14, 0.64)" stroke-width="2"></path><path d="M2062.19 1560C2062.19 1479.96 2200.14 1285.95 2340 1285.95C2481.86 1285.95 2625.63 1480.41 2625.63 1560C2625.63 1617.43 2482.82 1560 2340 1560C2201.1 1560 2062.19 1616.98 2062.19 1560" stroke="rgba(247, 119, 14, 0.42)" stroke-width="2"></path><path d="M0 158.11C126.32 138.89 186.82 296.37 390 330.65C576.82 362.17 611.28 368.63 780 289.71C964.72 203.3 930.26 123.78 1096.88 0C1125.26 -21.08 1133.44 0 1170 0C1365 0 1365 0 1560 0C1637.53 0 1715.06 -37.4 1715.06 0C1715.06 60.1 1644.21 103.6 1560 195C1464.54 298.6 1460.88 295.9 1355.71 390C1265.88 470.37 1278.43 530.99 1170 543.95C990.57 565.4 947.56 404.21 780 458.82C585.41 522.24 508.32 589.71 445.71 780C391.32 945.3 564.37 996.05 546 1170C536.51 1259.87 469.48 1307.65 390 1307.65C306.39 1307.65 228.17 1262.01 219.82 1170C204.23 998.19 395.27 939.81 342.11 780C285.36 609.39 134.36 662.34 0 509.17C-36.7 467.34 0 449.59 0 390C0 274.06 -68.68 168.56 0 158.11" stroke="rgba(247, 119, 14, 0.64)" stroke-width="2"></path><path d="M2340 283.64C2271.33 283.64 2213.51 100.78 2213.51 0C2213.51 -41.04 2276.76 0 2340 0C2416.72 0 2493.44 -45.72 2493.44 0C2493.44 96.1 2411.3 283.64 2340 283.64" stroke="rgba(247, 119, 14, 0.42)" stroke-width="2"></path><path d="M1950 780C1950 712.4 2139.9 670.5 2340 585C2529.9 503.86 2621.99 392.73 2730 446.73C2816.99 490.23 2730 613.37 2730 780C2730 875.47 2791.9 960.99 2730 970.94C2596.9 992.33 2538.76 891.34 2340 842.68C2148.76 795.87 1950 841.24 1950 780" stroke="rgba(247, 119, 14, 0.88)" stroke-width="2"></path><path d="M1396.91 1170C1491.14 1072.8 1484.52 951.22 1560 951.22C1630.13 951.22 1680.72 1051.95 1688.14 1170C1699.84 1356.34 1656.72 1382.01 1598.24 1560C1592.65 1577.01 1579.12 1560 1560 1560C1365 1560 1365 1560 1170 1560C975 1560 975 1560 780 1560C699.4 1560 618.8 1596.08 618.8 1560C618.8 1505.85 674.62 1419.02 780 1379.55C950.22 1315.79 993.4 1413.52 1170 1353.53C1301.86 1308.74 1296.14 1273.95 1396.91 1170" stroke="rgba(247, 119, 14, 0.88)" stroke-width="2"></path><path d="M0 1393.89C37.64 1393.89 133.88 1508.97 133.88 1560C133.88 1592.02 29.87 1597.07 0 1560C-37.07 1514.01 -29.3 1393.89 0 1393.89" stroke="rgba(247, 119, 14, 0.42)" stroke-width="2"></path><path d="M2195.75 1560C2195.75 1518.44 2267.38 1417.7 2340 1417.7C2413.66 1417.7 2488.31 1518.67 2488.31 1560C2488.31 1589.82 2414.15 1560 2340 1560C2267.88 1560 2195.75 1589.59 2195.75 1560" stroke="rgba(247, 119, 14, 0.88)" stroke-width="2"></path><path d="M1077.14 390C1077.14 359.98 1133.68 308.75 1170 308.75C1195.59 308.75 1200.95 353.45 1200.95 390C1200.95 406.9 1188.23 415.66 1170 415.66C1126.32 415.66 1077.14 413.44 1077.14 390" stroke="rgba(247, 119, 14, 0.42)" stroke-width="2"></path><path d="M1560 47.27C1508.39 47.27 1444.44 12.27 1444.44 0C1444.44 -11.36 1502.22 0 1560 0C1578.8 0 1597.59 -9.07 1597.59 0C1597.59 14.57 1584.96 47.27 1560 47.27" stroke="rgba(247, 119, 14, 0.64)" stroke-width="2"></path><path d="M2504.21 780C2504.21 714.91 2658.02 624 2730 624C2770.92 624 2730 702 2730 780C2730 824.68 2760.37 869.37 2730 869.37C2647.48 869.37 2504.21 837.59 2504.21 780" stroke="rgba(247, 119, 14, 0.64)" stroke-width="2"></path><path d="M748.8 1560C748.8 1549.52 757.47 1528.44 780 1525.07C968.07 1496.9 979.79 1484.34 1170 1496.91C1243.99 1501.8 1308.39 1543.48 1308.39 1560C1308.39 1575.03 1239.2 1560 1170 1560C975 1560 975 1560 780 1560C764.4 1560 748.8 1566.98 748.8 1560" stroke="rgba(247, 119, 14, 0.88)" stroke-width="2"></path><path d="M2329.32 1560C2329.32 1556.92 2334.62 1549.46 2340 1549.46C2345.46 1549.46 2350.99 1556.94 2350.99 1560C2350.99 1562.21 2345.49 1560 2340 1560C2334.66 1560 2329.32 1562.19 2329.32 1560" stroke="rgba(247, 119, 14, 0.88)" stroke-width="2"></path></g><defs><mask id="SvgjsMask1008"><rect width="2440" height="1560" fill="#ffffff"></rect></mask></defs></svg>