<svg xmlns="http://www.w3.org/2000/svg" version="1.1" xmlns:xlink="http://www.w3.org/1999/xlink" xmlns:svgjs="http://svgjs.dev/svgjs" width="2440" height="1560" preserveAspectRatio="none" viewBox="0 0 2440 1560"><g mask="url(&quot;#SvgjsMask1325&quot;)" fill="none"><rect width="2440" height="1560" x="0" y="0" fill="rgba(0, 17, 34, 1)"></rect><path d="M107.22 100.15L207.68 158.15L207.68 274.15L107.22 332.15L6.76 274.15L6.76 158.15zM107.22 448.15L207.68 506.15L207.68 622.15L107.22 680.15L6.76 622.15L6.76 506.15zM6.76 622.15L107.22 680.15L107.22 796.15L6.76 854.15L-93.7 796.15L-93.7 680.15zM107.22 1144.15L207.68 1202.15L207.68 1318.15L107.22 1376.15L6.76 1318.15L6.76 1202.15zM207.68 970.15L308.15 1028.15L308.15 1144.15L207.68 1202.15L107.22 1144.15L107.22 1028.15zM308.15 1144.15L408.61 1202.15L408.61 1318.15L308.15 1376.15L207.68 1318.15L207.68 1202.15zM509.07 448.15L609.53 506.15L609.53 622.15L509.07 680.15L408.61 622.15L408.61 506.15zM408.61 970.15L509.07 1028.15L509.07 1144.15L408.61 1202.15L308.15 1144.15L308.15 1028.15zM609.53 622.15L709.99 680.15L709.99 796.15L609.53 854.15L509.07 796.15L509.07 680.15zM910.92 100.15L1011.38 158.15L1011.38 274.15L910.92 332.15L810.45 274.15L810.45 158.15zM910.92 448.15L1011.38 506.15L1011.38 622.15L910.92 680.15L810.45 622.15L810.45 506.15zM910.92 796.15L1011.38 854.15L1011.38 970.15L910.92 1028.15L810.45 970.15L810.45 854.15zM910.92 1144.15L1011.38 1202.15L1011.38 1318.15L910.92 1376.15L810.45 1318.15L810.45 1202.15zM810.45 1318.15L910.92 1376.15L910.92 1492.15L810.45 1550.15L709.99 1492.15L709.99 1376.15zM1312.76 796.15L1413.23 854.15L1413.23 970.15L1312.76 1028.15L1212.3 970.15L1212.3 854.15zM1212.3 1318.15L1312.76 1376.15L1312.76 1492.15L1212.3 1550.15L1111.84 1492.15L1111.84 1376.15zM1413.23 970.15L1513.69 1028.15L1513.69 1144.15L1413.23 1202.15L1312.76 1144.15L1312.76 1028.15zM1614.15 622.15L1714.61 680.15L1714.61 796.15L1614.15 854.15L1513.69 796.15L1513.69 680.15zM1714.61 796.15L1815.07 854.15L1815.07 970.15L1714.61 1028.15L1614.15 970.15L1614.15 854.15zM1614.15 1318.15L1714.61 1376.15L1714.61 1492.15L1614.15 1550.15L1513.69 1492.15L1513.69 1376.15zM1915.53 796.15L2016 854.15L2016 970.15L1915.53 1028.15L1815.07 970.15L1815.07 854.15zM1915.53 1492.15L2016 1550.15L2016 1666.15L1915.53 1724.15L1815.07 1666.15L1815.07 1550.15zM2016 622.15L2116.46 680.15L2116.46 796.15L2016 854.15L1915.53 796.15L1915.53 680.15zM2116.46 796.15L2216.92 854.15L2216.92 970.15L2116.46 1028.15L2016 970.15L2016 854.15zM2116.46 1492.15L2216.92 1550.15L2216.92 1666.15L2116.46 1724.15L2016 1666.15L2016 1550.15zM2216.92 -73.85L2317.38 -15.85L2317.38 100.15L2216.92 158.15L2116.46 100.15L2116.46 -15.85zM2417.84 274.15L2518.31 332.15L2518.31 448.15L2417.84 506.15L2317.38 448.15L2317.38 332.15zM2417.84 970.15L2518.31 1028.15L2518.31 1144.15L2417.84 1202.15L2317.38 1144.15L2317.38 1028.15zM2518.31 1144.15L2618.77 1202.15L2618.77 1318.15L2518.31 1376.15L2417.84 1318.15L2417.84 1202.15zM2417.84 1318.15L2518.31 1376.15L2518.31 1492.15L2417.84 1550.15L2317.38 1492.15L2317.38 1376.15z" stroke="url(&quot;#SvgjsLinearGradient1326&quot;)" stroke-width="2"></path></g><defs><mask id="SvgjsMask1325"><rect width="2440" height="1560" fill="#ffffff"></rect></mask><linearGradient x1="1220" y1="1560" x2="1220" y2="0" gradientUnits="userSpaceOnUse" id="SvgjsLinearGradient1326"><stop stop-color="rgba(247, 119, 14, 1)" offset="0.14"></stop><stop stop-color="rgba(14, 42, 71, 1)" offset="0.56"></stop><stop stop-color="rgba(247, 119, 14, 1)" offset="1"></stop></linearGradient></defs></svg>