<svg id="visual" viewBox="0 0 1920 100" width="1920" height="100" xmlns="http://www.w3.org/2000/svg" xmlns:xlink="http://www.w3.org/1999/xlink" version="1.1"><rect x="0" y="0" width="1920" height="100" fill="#F7770F"></rect><path d="M0 88L11.5 87.7C23 87.3 46 86.7 68.8 83.8C91.7 81 114.3 76 137.2 77.5C160 79 183 87 205.8 85.8C228.7 84.7 251.3 74.3 274.2 69C297 63.7 320 63.3 342.8 67.3C365.7 71.3 388.3 79.7 411.2 80.5C434 81.3 457 74.7 480 73.3C503 72 526 76 548.8 75C571.7 74 594.3 68 617.2 63.2C640 58.3 663 54.7 685.8 60.2C708.7 65.7 731.3 80.3 754.2 87.5C777 94.7 800 94.3 822.8 87.8C845.7 81.3 868.3 68.7 891.2 62C914 55.3 937 54.7 960 61.8C983 69 1006 84 1028.8 87.7C1051.7 91.3 1074.3 83.7 1097.2 76.2C1120 68.7 1143 61.3 1165.8 64.2C1188.7 67 1211.3 80 1234.2 81.8C1257 83.7 1280 74.3 1302.8 73.7C1325.7 73 1348.3 81 1371.2 80.2C1394 79.3 1417 69.7 1440 67.5C1463 65.3 1486 70.7 1508.8 73.5C1531.7 76.3 1554.3 76.7 1577.2 75.8C1600 75 1623 73 1645.8 74.2C1668.7 75.3 1691.3 79.7 1714.2 77.5C1737 75.3 1760 66.7 1782.8 61.8C1805.7 57 1828.3 56 1851.2 59.2C1874 62.3 1897 69.7 1908.5 73.3L1920 77L1920 101L1908.5 101C1897 101 1874 101 1851.2 101C1828.3 101 1805.7 101 1782.8 101C1760 101 1737 101 1714.2 101C1691.3 101 1668.7 101 1645.8 101C1623 101 1600 101 1577.2 101C1554.3 101 1531.7 101 1508.8 101C1486 101 1463 101 1440 101C1417 101 1394 101 1371.2 101C1348.3 101 1325.7 101 1302.8 101C1280 101 1257 101 1234.2 101C1211.3 101 1188.7 101 1165.8 101C1143 101 1120 101 1097.2 101C1074.3 101 1051.7 101 1028.8 101C1006 101 983 101 960 101C937 101 914 101 891.2 101C868.3 101 845.7 101 822.8 101C800 101 777 101 754.2 101C731.3 101 708.7 101 685.8 101C663 101 640 101 617.2 101C594.3 101 571.7 101 548.8 101C526 101 503 101 480 101C457 101 434 101 411.2 101C388.3 101 365.7 101 342.8 101C320 101 297 101 274.2 101C251.3 101 228.7 101 205.8 101C183 101 160 101 137.2 101C114.3 101 91.7 101 68.8 101C46 101 23 101 11.5 101L0 101Z" fill="#001122" stroke-linecap="round" stroke-linejoin="miter"></path></svg>